<svg width="788" height="123" viewBox="0 0 788 123" fill="none" xmlns="http://www.w3.org/2000/svg">
<rect y="121" width="788" height="2" fill="#345B6B"/>
<path d="M8.76709 14.6064H3.31201V18.4517H9.65918V20H1.41504V8.0542H9.59766V9.62305H3.31201V13.0479H8.76709V14.6064ZM16.6954 18.4517H22.6837V20H14.7984V8.0542H16.6954V18.4517ZM35.0212 14.6064H29.5661V18.4517H35.9133V20H27.6691V8.0542H35.8518V9.62305H29.5661V13.0479H35.0212V14.6064ZM50.6297 16.1343C50.493 17.4126 49.9939 18.4038 49.1326 19.1079C48.2713 19.812 47.1263 20.1641 45.6976 20.1641C44.1663 20.1641 42.9358 19.6616 42.0062 18.6567C41.0833 17.645 40.6219 16.2539 40.6219 14.4834V13.5195C40.6219 12.3984 40.8304 11.4141 41.2474 10.5664C41.6712 9.71191 42.2762 9.05225 43.0623 8.5874C43.8553 8.12256 44.7713 7.89014 45.8104 7.89014C47.2049 7.89014 48.3226 8.25244 49.1634 8.97705C50.011 9.69482 50.4998 10.6929 50.6297 11.9712H48.7327C48.6097 11.0825 48.3055 10.4399 47.8201 10.0435C47.3416 9.64697 46.6717 9.44873 45.8104 9.44873C44.7645 9.44873 43.9544 9.79736 43.3802 10.4946C42.8128 11.1851 42.5257 12.1763 42.5188 13.4683V14.5552C42.5188 15.8472 42.7889 16.8486 43.3289 17.5596C43.8758 18.2637 44.6653 18.6157 45.6976 18.6157C46.6204 18.6157 47.3211 18.4277 47.7996 18.0518C48.285 17.6689 48.596 17.0298 48.7327 16.1343H50.6297ZM65.0282 9.62305H60.9369V20H59.0399V9.62305H54.9691V8.0542H65.0282V9.62305ZM74.7715 15.396H71.9106V20H70.0137V8.0542H74.3818C75.8379 8.0542 76.959 8.37207 77.7451 9.00781C78.5381 9.64355 78.9346 10.5425 78.9346 11.7046C78.9346 13.2632 78.1313 14.3467 76.5249 14.9551L79.478 19.8975V20H77.4478L74.7715 15.396ZM71.9106 13.8477H74.4331C75.2329 13.8477 75.8652 13.6631 76.3301 13.2939C76.8018 12.918 77.0376 12.4121 77.0376 11.7764C77.0376 11.0928 76.8086 10.563 76.3506 10.187C75.8926 9.81104 75.2329 9.62305 74.3716 9.62305H71.9106V13.8477ZM94.4303 14.3809C94.4303 16.165 93.9586 17.5767 93.0152 18.6157C92.0719 19.6479 90.8072 20.1641 89.2213 20.1641C87.6559 20.1641 86.3912 19.6411 85.4273 18.5952C84.4703 17.5493 83.9918 16.1274 83.9918 14.3296V13.6938C83.9918 11.9302 84.4669 10.522 85.4171 9.46924C86.3741 8.4165 87.6354 7.89014 89.2008 7.89014C90.7936 7.89014 92.0582 8.40967 92.9947 9.44873C93.9381 10.4878 94.4166 11.8789 94.4303 13.6221V14.3809ZM92.5538 13.6733C92.5538 12.3198 92.2599 11.2842 91.672 10.5664C91.0841 9.84863 90.2604 9.48975 89.2008 9.48975C88.1754 9.48975 87.3619 9.85547 86.7604 10.5869C86.1656 11.3184 85.8683 12.3574 85.8683 13.7041V14.3809C85.8683 15.7139 86.169 16.7495 86.7706 17.4878C87.3722 18.2192 88.1891 18.585 89.2213 18.585C90.2877 18.585 91.108 18.2261 91.6822 17.5083C92.2633 16.7837 92.5538 15.7412 92.5538 14.3809V13.6733ZM109.988 20H108.101L101.897 11.0176V20H100V8.0542H101.897L108.101 17.0469V8.0542H109.988V20ZM118.029 20H116.121V8.0542H118.029V20ZM133.719 16.1343C133.582 17.4126 133.083 18.4038 132.222 19.1079C131.361 19.812 130.216 20.1641 128.787 20.1641C127.256 20.1641 126.025 19.6616 125.096 18.6567C124.173 17.645 123.711 16.2539 123.711 14.4834V13.5195C123.711 12.3984 123.92 11.4141 124.337 10.5664C124.761 9.71191 125.366 9.05225 126.152 8.5874C126.945 8.12256 127.861 7.89014 128.9 7.89014C130.294 7.89014 131.412 8.25244 132.253 8.97705C133.1 9.69482 133.589 10.6929 133.719 11.9712H131.822C131.699 11.0825 131.395 10.4399 130.91 10.0435C130.431 9.64697 129.761 9.44873 128.9 9.44873C127.854 9.44873 127.044 9.79736 126.47 10.4946C125.902 11.1851 125.615 12.1763 125.608 13.4683V14.5552C125.608 15.8472 125.878 16.8486 126.418 17.5596C126.965 18.2637 127.755 18.6157 128.787 18.6157C129.71 18.6157 130.411 18.4277 130.889 18.0518C131.374 17.6689 131.685 17.0298 131.822 16.1343H133.719ZM157 16.1343C156.863 17.4126 156.364 18.4038 155.503 19.1079C154.641 19.812 153.496 20.1641 152.067 20.1641C150.536 20.1641 149.306 19.6616 148.376 18.6567C147.453 17.645 146.992 16.2539 146.992 14.4834V13.5195C146.992 12.3984 147.2 11.4141 147.617 10.5664C148.041 9.71191 148.646 9.05225 149.432 8.5874C150.225 8.12256 151.141 7.89014 152.18 7.89014C153.575 7.89014 154.692 8.25244 155.533 8.97705C156.381 9.69482 156.87 10.6929 157 11.9712H155.103C154.98 11.0825 154.675 10.4399 154.19 10.0435C153.712 9.64697 153.042 9.44873 152.18 9.44873C151.134 9.44873 150.324 9.79736 149.75 10.4946C149.183 11.1851 148.896 12.1763 148.889 13.4683V14.5552C148.889 15.8472 149.159 16.8486 149.699 17.5596C150.246 18.2637 151.035 18.6157 152.067 18.6157C152.99 18.6157 153.691 18.4277 154.17 18.0518C154.655 17.6689 154.966 17.0298 155.103 16.1343H157ZM172.352 14.3809C172.352 16.165 171.88 17.5767 170.937 18.6157C169.993 19.6479 168.729 20.1641 167.143 20.1641C165.577 20.1641 164.313 19.6411 163.349 18.5952C162.392 17.5493 161.913 16.1274 161.913 14.3296V13.6938C161.913 11.9302 162.388 10.522 163.339 9.46924C164.296 8.4165 165.557 7.89014 167.122 7.89014C168.715 7.89014 169.98 8.40967 170.916 9.44873C171.86 10.4878 172.338 11.8789 172.352 13.6221V14.3809ZM170.475 13.6733C170.475 12.3198 170.181 11.2842 169.593 10.5664C169.006 9.84863 168.182 9.48975 167.122 9.48975C166.097 9.48975 165.283 9.85547 164.682 10.5869C164.087 11.3184 163.79 12.3574 163.79 13.7041V14.3809C163.79 15.7139 164.091 16.7495 164.692 17.4878C165.294 18.2192 166.111 18.585 167.143 18.585C168.209 18.585 169.029 18.2261 169.604 17.5083C170.185 16.7837 170.475 15.7412 170.475 14.3809V13.6733ZM180.383 8.0542L184.392 17.3955L188.381 8.0542H190.852V20H188.965V15.8882L189.16 10.4229L185.079 20H183.684L179.614 10.4639L179.808 15.8882V20H177.922V8.0542H180.383ZM198.739 15.5088V20H196.842V8.0542H201.631C203.025 8.0542 204.136 8.396 204.963 9.07959C205.79 9.75635 206.204 10.6689 206.204 11.8174C206.204 12.9795 205.804 13.8853 205.004 14.5347C204.204 15.1841 203.073 15.5088 201.61 15.5088H198.739ZM198.739 13.9502H201.631C202.478 13.9502 203.135 13.769 203.6 13.4067C204.064 13.0444 204.297 12.5215 204.297 11.8379C204.297 11.1816 204.064 10.6519 203.6 10.2485C203.135 9.83838 202.496 9.62988 201.682 9.62305H198.739V13.9502ZM220.623 8.0542V16.0522C220.623 17.2964 220.196 18.2944 219.341 19.0464C218.487 19.7915 217.345 20.1641 215.917 20.1641C214.481 20.1641 213.343 19.8052 212.502 19.0874C211.661 18.3628 211.23 17.3784 211.21 16.1343V8.0542H213.086V16.0522C213.086 16.8794 213.329 17.5151 213.814 17.9595C214.307 18.397 215.007 18.6157 215.917 18.6157C216.812 18.6157 217.502 18.4004 217.988 17.9697C218.48 17.5322 218.726 16.8931 218.726 16.0522V8.0542H220.623ZM235.411 9.62305H231.32V20H229.423V9.62305H225.352V8.0542H235.411V9.62305ZM247.749 14.6064H242.294V18.4517H248.641V20H240.397V8.0542H248.579V9.62305H242.294V13.0479H247.749V14.6064ZM258.538 15.396H255.677V20H253.78V8.0542H258.148C259.604 8.0542 260.725 8.37207 261.512 9.00781C262.304 9.64355 262.701 10.5425 262.701 11.7046C262.701 13.2632 261.898 14.3467 260.291 14.9551L263.244 19.8975V20H261.214L258.538 15.396ZM255.677 13.8477H258.2C258.999 13.8477 259.632 13.6631 260.096 13.2939C260.568 12.918 260.804 12.4121 260.804 11.7764C260.804 11.0928 260.575 10.563 260.117 10.187C259.659 9.81104 258.999 9.62305 258.138 9.62305H255.677V13.8477ZM275.008 16.9443C275.008 16.3975 274.799 15.9736 274.382 15.6729C273.972 15.3721 273.265 15.0952 272.26 14.8423C271.255 14.5894 270.458 14.3159 269.871 14.022C268.538 13.3521 267.871 12.4053 267.871 11.1816C267.871 10.2041 268.285 9.41113 269.112 8.80273C269.946 8.19434 271.016 7.89014 272.321 7.89014C273.661 7.89014 274.755 8.23193 275.602 8.91553C276.457 9.59912 276.884 10.4741 276.884 11.5405H274.987C274.987 10.8706 274.745 10.3545 274.259 9.99219C273.781 9.62305 273.128 9.43848 272.301 9.43848C271.528 9.43848 270.913 9.59229 270.455 9.8999C269.997 10.2007 269.768 10.6245 269.768 11.1714C269.768 11.6157 269.976 11.9883 270.393 12.2891C270.817 12.5898 271.562 12.877 272.629 13.1504C273.695 13.4238 274.529 13.7349 275.131 14.0835C275.732 14.4253 276.18 14.8286 276.474 15.2935C276.768 15.7583 276.915 16.3018 276.915 16.9238C276.915 17.9287 276.498 18.7217 275.664 19.3027C274.837 19.877 273.743 20.1641 272.383 20.1641C270.968 20.1641 269.792 19.8188 268.855 19.1284C267.926 18.4312 267.461 17.5288 267.461 16.4214H269.368C269.368 17.1187 269.631 17.6621 270.158 18.0518C270.684 18.4414 271.426 18.6362 272.383 18.6362C273.244 18.6362 273.897 18.4824 274.341 18.1748C274.786 17.8604 275.008 17.4502 275.008 16.9443Z" fill="white"/>
<path d="M3.87598 60.0542L7.88525 69.3955L11.874 60.0542H14.3452V72H12.4585V67.8882L12.6533 62.4229L8.57227 72H7.17773L3.10693 62.4639L3.30176 67.8882V72H1.41504V60.0542H3.87598ZM22.3761 72H20.4688V60.0542H22.3761V72ZM30.3864 70.4517H36.3747V72H28.4895V60.0542H30.3864V70.4517ZM43.4007 72H41.4935V60.0542H43.4007V72ZM58.5683 61.623H54.477V72H52.58V61.623H48.5092V60.0542H58.5683V61.623ZM70.7314 69.1392H65.3994L64.2715 72H62.3335L67.2451 60.0542H68.9473L73.7871 72H71.8594L70.7314 69.1392ZM66.0146 67.5908H70.1265L68.0859 62.3716L66.0146 67.5908ZM83.3355 67.396H80.4747V72H78.5777V60.0542H82.9459C84.402 60.0542 85.523 60.3721 86.3092 61.0078C87.1021 61.6436 87.4986 62.5425 87.4986 63.7046C87.4986 65.2632 86.6954 66.3467 85.089 66.9551L88.0421 71.8975V72H86.0118L83.3355 67.396ZM80.4747 65.8477H82.9972C83.797 65.8477 84.4293 65.6631 84.8941 65.2939C85.3658 64.918 85.6017 64.4121 85.6017 63.7764C85.6017 63.0928 85.3727 62.563 84.9146 62.187C84.4566 61.811 83.797 61.623 82.9356 61.623H80.4747V65.8477ZM96.842 65.9912L100.041 60.0542H102.174L97.7648 67.8267V72H95.8679V67.7139L91.5202 60.0542H93.653L96.842 65.9912ZM120.02 67.396H117.159V72H115.262V60.0542H119.63C121.086 60.0542 122.207 60.3721 122.994 61.0078C123.787 61.6436 124.183 62.5425 124.183 63.7046C124.183 65.2632 123.38 66.3467 121.773 66.9551L124.726 71.8975V72H122.696L120.02 67.396ZM117.159 65.8477H119.682C120.481 65.8477 121.114 65.6631 121.579 65.2939C122.05 64.918 122.286 64.4121 122.286 63.7764C122.286 63.0928 122.057 62.563 121.599 62.187C121.141 61.811 120.481 61.623 119.62 61.623H117.159V65.8477ZM137.023 66.6064H131.568V70.4517H137.915V72H129.671V60.0542H137.854V61.623H131.568V65.0479H137.023V66.6064ZM149.873 68.9443C149.873 68.3975 149.665 67.9736 149.248 67.6729C148.837 67.3721 148.13 67.0952 147.125 66.8423C146.12 66.5894 145.324 66.3159 144.736 66.022C143.403 65.3521 142.736 64.4053 142.736 63.1816C142.736 62.2041 143.15 61.4111 143.977 60.8027C144.811 60.1943 145.881 59.8901 147.187 59.8901C148.526 59.8901 149.62 60.2319 150.468 60.9155C151.322 61.5991 151.75 62.4741 151.75 63.5405H149.853C149.853 62.8706 149.61 62.3545 149.125 61.9922C148.646 61.623 147.993 61.4385 147.166 61.4385C146.394 61.4385 145.778 61.5923 145.32 61.8999C144.862 62.2007 144.633 62.6245 144.633 63.1714C144.633 63.6157 144.842 63.9883 145.259 64.2891C145.683 64.5898 146.428 64.877 147.494 65.1504C148.561 65.4238 149.395 65.7349 149.996 66.0835C150.598 66.4253 151.046 66.8286 151.339 67.2935C151.633 67.7583 151.78 68.3018 151.78 68.9238C151.78 69.9287 151.363 70.7217 150.529 71.3027C149.702 71.877 148.608 72.1641 147.248 72.1641C145.833 72.1641 144.657 71.8188 143.721 71.1284C142.791 70.4312 142.326 69.5288 142.326 68.4214H144.233C144.233 69.1187 144.497 69.6621 145.023 70.0518C145.549 70.4414 146.291 70.6362 147.248 70.6362C148.109 70.6362 148.762 70.4824 149.207 70.1748C149.651 69.8604 149.873 69.4502 149.873 68.9443ZM164.384 66.6064H158.929V70.4517H165.277V72H157.032V60.0542H165.215V61.623H158.929V65.0479H164.384V66.6064ZM177.594 69.1392H172.262L171.134 72H169.196L174.107 60.0542H175.809L180.649 72H178.721L177.594 69.1392ZM172.877 67.5908H176.989L174.948 62.3716L172.877 67.5908ZM190.198 67.396H187.337V72H185.44V60.0542H189.808C191.264 60.0542 192.385 60.3721 193.171 61.0078C193.964 61.6436 194.361 62.5425 194.361 63.7046C194.361 65.2632 193.558 66.3467 191.951 66.9551L194.904 71.8975V72H192.874L190.198 67.396ZM187.337 65.8477H189.859C190.659 65.8477 191.291 65.6631 191.756 65.2939C192.228 64.918 192.464 64.4121 192.464 63.7764C192.464 63.0928 192.235 62.563 191.777 62.187C191.319 61.811 190.659 61.623 189.798 61.623H187.337V65.8477ZM209.426 68.1343C209.289 69.4126 208.79 70.4038 207.929 71.1079C207.067 71.812 205.922 72.1641 204.494 72.1641C202.962 72.1641 201.732 71.6616 200.802 70.6567C199.879 69.645 199.418 68.2539 199.418 66.4834V65.5195C199.418 64.3984 199.626 63.4141 200.043 62.5664C200.467 61.7119 201.072 61.0522 201.858 60.5874C202.651 60.1226 203.567 59.8901 204.606 59.8901C206.001 59.8901 207.119 60.2524 207.959 60.9771C208.807 61.6948 209.296 62.6929 209.426 63.9712H207.529C207.406 63.0825 207.102 62.4399 206.616 62.0435C206.138 61.647 205.468 61.4487 204.606 61.4487C203.561 61.4487 202.75 61.7974 202.176 62.4946C201.609 63.1851 201.322 64.1763 201.315 65.4683V66.5552C201.315 67.8472 201.585 68.8486 202.125 69.5596C202.672 70.2637 203.461 70.6157 204.494 70.6157C205.417 70.6157 206.117 70.4277 206.596 70.0518C207.081 69.6689 207.392 69.0298 207.529 68.1343H209.426ZM224.757 72H222.86V66.8936H216.667V72H214.77V60.0542H216.667V65.335H222.86V60.0542H224.757V72Z" fill="white"/>
<path d="M412.767 66.6064H407.312V70.4517H413.659V72H405.415V60.0542H413.598V61.623H407.312V65.0479H412.767V66.6064ZM428.786 72H426.899L420.695 63.0176V72H418.798V60.0542H420.695L426.899 69.0469V60.0542H428.786V72ZM443.841 61.623H439.749V72H437.852V61.623H433.781V60.0542H443.841V61.623ZM458.813 72H456.916V66.8936H450.723V72H448.826V60.0542H450.723V65.335H456.916V60.0542H458.813V72ZM474.001 60.0542V68.0522C474.001 69.2964 473.574 70.2944 472.72 71.0464C471.865 71.7915 470.724 72.1641 469.295 72.1641C467.859 72.1641 466.721 71.8052 465.88 71.0874C465.039 70.3628 464.609 69.3784 464.588 68.1343V60.0542H466.465V68.0522C466.465 68.8794 466.707 69.5151 467.193 69.9595C467.685 70.397 468.386 70.6157 469.295 70.6157C470.19 70.6157 470.881 70.4004 471.366 69.9697C471.858 69.5322 472.104 68.8931 472.104 68.0522V60.0542H474.001ZM486.554 68.9443C486.554 68.3975 486.346 67.9736 485.929 67.6729C485.519 67.3721 484.811 67.0952 483.806 66.8423C482.801 66.5894 482.005 66.3159 481.417 66.022C480.084 65.3521 479.417 64.4053 479.417 63.1816C479.417 62.2041 479.831 61.4111 480.658 60.8027C481.492 60.1943 482.562 59.8901 483.868 59.8901C485.208 59.8901 486.301 60.2319 487.149 60.9155C488.003 61.5991 488.431 62.4741 488.431 63.5405H486.534C486.534 62.8706 486.291 62.3545 485.806 61.9922C485.327 61.623 484.674 61.4385 483.847 61.4385C483.075 61.4385 482.459 61.5923 482.001 61.8999C481.543 62.2007 481.314 62.6245 481.314 63.1714C481.314 63.6157 481.523 63.9883 481.94 64.2891C482.364 64.5898 483.109 64.877 484.175 65.1504C485.242 65.4238 486.076 65.7349 486.677 66.0835C487.279 66.4253 487.727 66.8286 488.021 67.2935C488.314 67.7583 488.461 68.3018 488.461 68.9238C488.461 69.9287 488.044 70.7217 487.21 71.3027C486.383 71.877 485.29 72.1641 483.929 72.1641C482.514 72.1641 481.338 71.8188 480.402 71.1284C479.472 70.4312 479.007 69.5288 479.007 68.4214H480.915C480.915 69.1187 481.178 69.6621 481.704 70.0518C482.23 70.4414 482.972 70.6362 483.929 70.6362C484.791 70.6362 485.443 70.4824 485.888 70.1748C486.332 69.8604 486.554 69.4502 486.554 68.9443ZM495.754 72H493.847V60.0542H495.754V72ZM509.045 69.1392H503.713L502.585 72H500.647L505.559 60.0542H507.261L512.101 72H510.173L509.045 69.1392ZM504.328 67.5908H508.44L506.4 62.3716L504.328 67.5908ZM523.71 68.9443C523.71 68.3975 523.502 67.9736 523.085 67.6729C522.675 67.3721 521.967 67.0952 520.962 66.8423C519.957 66.5894 519.161 66.3159 518.573 66.022C517.24 65.3521 516.574 64.4053 516.574 63.1816C516.574 62.2041 516.987 61.4111 517.814 60.8027C518.648 60.1943 519.718 59.8901 521.024 59.8901C522.364 59.8901 523.457 60.2319 524.305 60.9155C525.159 61.5991 525.587 62.4741 525.587 63.5405H523.69C523.69 62.8706 523.447 62.3545 522.962 61.9922C522.483 61.623 521.83 61.4385 521.003 61.4385C520.231 61.4385 519.616 61.5923 519.158 61.8999C518.7 62.2007 518.471 62.6245 518.471 63.1714C518.471 63.6157 518.679 63.9883 519.096 64.2891C519.52 64.5898 520.265 64.877 521.331 65.1504C522.398 65.4238 523.232 65.7349 523.833 66.0835C524.435 66.4253 524.883 66.8286 525.177 67.2935C525.471 67.7583 525.617 68.3018 525.617 68.9238C525.617 69.9287 525.2 70.7217 524.367 71.3027C523.539 71.877 522.446 72.1641 521.085 72.1641C519.67 72.1641 518.494 71.8188 517.558 71.1284C516.628 70.4312 516.163 69.5288 516.163 68.4214H518.071C518.071 69.1187 518.334 69.6621 518.86 70.0518C519.387 70.4414 520.128 70.6362 521.085 70.6362C521.947 70.6362 522.599 70.4824 523.044 70.1748C523.488 69.8604 523.71 69.4502 523.71 68.9443ZM539.924 61.623H535.832V72H533.935V61.623H529.865V60.0542H539.924V61.623ZM551.728 68.9443C551.728 68.3975 551.52 67.9736 551.103 67.6729C550.692 67.3721 549.985 67.0952 548.98 66.8423C547.975 66.5894 547.179 66.3159 546.591 66.022C545.258 65.3521 544.591 64.4053 544.591 63.1816C544.591 62.2041 545.005 61.4111 545.832 60.8027C546.666 60.1943 547.736 59.8901 549.042 59.8901C550.381 59.8901 551.475 60.2319 552.323 60.9155C553.177 61.5991 553.604 62.4741 553.604 63.5405H551.708C551.708 62.8706 551.465 62.3545 550.979 61.9922C550.501 61.623 549.848 61.4385 549.021 61.4385C548.249 61.4385 547.633 61.5923 547.175 61.8999C546.717 62.2007 546.488 62.6245 546.488 63.1714C546.488 63.6157 546.697 63.9883 547.114 64.2891C547.538 64.5898 548.283 64.877 549.349 65.1504C550.416 65.4238 551.25 65.7349 551.851 66.0835C552.453 66.4253 552.9 66.8286 553.194 67.2935C553.488 67.7583 553.635 68.3018 553.635 68.9238C553.635 69.9287 553.218 70.7217 552.384 71.3027C551.557 71.877 550.463 72.1641 549.103 72.1641C547.688 72.1641 546.512 71.8188 545.576 71.1284C544.646 70.4312 544.181 69.5288 544.181 68.4214H546.088C546.088 69.1187 546.352 69.6621 546.878 70.0518C547.404 70.4414 548.146 70.6362 549.103 70.6362C549.964 70.6362 550.617 70.4824 551.062 70.1748C551.506 69.8604 551.728 69.4502 551.728 68.9443Z" fill="#FFD3C5"/>
<path d="M670.767 66.6064H665.312V70.4517H671.659V72H663.415V60.0542H671.598V61.623H665.312V65.0479H670.767V66.6064ZM680.9 69.0059L681.156 69.9697L681.423 69.0264L684.704 60.0542H686.734L682.048 72H680.275L675.588 60.0542H677.629L680.9 69.0059ZM698.867 66.6064H693.412V70.4517H699.759V72H691.515V60.0542H699.697V61.623H693.412V65.0479H698.867V66.6064ZM709.656 67.396H706.795V72H704.898V60.0542H709.266C710.722 60.0542 711.844 60.3721 712.63 61.0078C713.423 61.6436 713.819 62.5425 713.819 63.7046C713.819 65.2632 713.016 66.3467 711.409 66.9551L714.363 71.8975V72H712.332L709.656 67.396ZM706.795 65.8477H709.318C710.117 65.8477 710.75 65.6631 711.215 65.2939C711.686 64.918 711.922 64.4121 711.922 63.7764C711.922 63.0928 711.693 62.563 711.235 62.187C710.777 61.811 710.117 61.623 709.256 61.623H706.795V65.8477ZM723.162 65.9912L726.362 60.0542H728.495L724.085 67.8267V72H722.188V67.7139L717.841 60.0542H719.974L723.162 65.9912ZM733.224 72V60.0542H737.387C738.815 60.0542 739.909 60.3345 740.668 60.895C741.427 61.4487 741.806 62.2554 741.806 63.3149C741.806 63.8687 741.642 64.3608 741.314 64.7915C740.993 65.2222 740.531 65.5503 739.93 65.7759C740.606 65.9399 741.143 66.2783 741.54 66.791C741.936 67.2969 742.134 67.895 742.134 68.5854C742.134 69.6655 741.762 70.5029 741.017 71.0977C740.271 71.6924 739.212 71.9932 737.838 72H733.224ZM735.121 66.5654V70.4517H737.807C738.593 70.4517 739.195 70.2842 739.612 69.9492C740.029 69.6143 740.237 69.1562 740.237 68.5752C740.237 67.2354 739.434 66.5654 737.828 66.5654H735.121ZM735.121 65.1196H737.52C738.258 65.1196 738.839 64.9761 739.263 64.689C739.687 64.395 739.899 63.9644 739.899 63.397C739.899 62.2485 739.116 61.6572 737.551 61.623H735.121V65.1196ZM757.702 66.3809C757.702 68.165 757.23 69.5767 756.287 70.6157C755.343 71.6479 754.079 72.1641 752.493 72.1641C750.927 72.1641 749.663 71.6411 748.699 70.5952C747.742 69.5493 747.263 68.1274 747.263 66.3296V65.6938C747.263 63.9302 747.738 62.522 748.689 61.4692C749.646 60.4165 750.907 59.8901 752.472 59.8901C754.065 59.8901 755.33 60.4097 756.266 61.4487C757.21 62.4878 757.688 63.8789 757.702 65.6221V66.3809ZM755.825 65.6733C755.825 64.3198 755.531 63.2842 754.943 62.5664C754.356 61.8486 753.532 61.4897 752.472 61.4897C751.447 61.4897 750.633 61.8555 750.032 62.5869C749.437 63.3184 749.14 64.3574 749.14 65.7041V66.3809C749.14 67.7139 749.441 68.7495 750.042 69.4878C750.644 70.2192 751.461 70.585 752.493 70.585C753.559 70.585 754.379 70.2261 754.954 69.5083C755.535 68.7837 755.825 67.7412 755.825 66.3809V65.6733ZM763.272 72V60.0542H766.973C768.081 60.0542 769.062 60.2832 769.916 60.7412C770.778 61.1924 771.447 61.8384 771.926 62.6792C772.404 63.52 772.654 64.4839 772.675 65.5708V66.3604C772.675 68.083 772.141 69.4536 771.075 70.4722C770.015 71.4907 768.587 72 766.789 72H763.272ZM765.169 61.623V70.4517H766.85C768.122 70.4517 769.096 70.0962 769.773 69.3853C770.449 68.6743 770.788 67.6626 770.788 66.3501V65.6938C770.788 64.3813 770.463 63.3765 769.814 62.6792C769.171 61.9751 768.224 61.623 766.973 61.623H765.169ZM782.049 65.9912L785.248 60.0542H787.381L782.971 67.8267V72H781.075V67.7139L776.727 60.0542H778.86L782.049 65.9912Z" fill="white"/>
<path d="M414.992 16.1343C414.855 17.4126 414.356 18.4038 413.495 19.1079C412.634 19.812 411.489 20.1641 410.06 20.1641C408.529 20.1641 407.298 19.6616 406.369 18.6567C405.446 17.645 404.984 16.2539 404.984 14.4834V13.5195C404.984 12.3984 405.193 11.4141 405.61 10.5664C406.034 9.71191 406.639 9.05225 407.425 8.5874C408.218 8.12256 409.134 7.89014 410.173 7.89014C411.567 7.89014 412.685 8.25244 413.526 8.97705C414.374 9.69482 414.862 10.6929 414.992 11.9712H413.095C412.972 11.0825 412.668 10.4399 412.183 10.0435C411.704 9.64697 411.034 9.44873 410.173 9.44873C409.127 9.44873 408.317 9.79736 407.743 10.4946C407.175 11.1851 406.888 12.1763 406.881 13.4683V14.5552C406.881 15.8472 407.151 16.8486 407.691 17.5596C408.238 18.2637 409.028 18.6157 410.06 18.6157C410.983 18.6157 411.684 18.4277 412.162 18.0518C412.647 17.6689 412.958 17.0298 413.095 16.1343H414.992ZM430.344 14.3809C430.344 16.165 429.873 17.5767 428.929 18.6157C427.986 19.6479 426.721 20.1641 425.135 20.1641C423.57 20.1641 422.305 19.6411 421.341 18.5952C420.384 17.5493 419.906 16.1274 419.906 14.3296V13.6938C419.906 11.9302 420.381 10.522 421.331 9.46924C422.288 8.4165 423.549 7.89014 425.115 7.89014C426.708 7.89014 427.972 8.40967 428.909 9.44873C429.852 10.4878 430.331 11.8789 430.344 13.6221V14.3809ZM428.468 13.6733C428.468 12.3198 428.174 11.2842 427.586 10.5664C426.998 9.84863 426.174 9.48975 425.115 9.48975C424.089 9.48975 423.276 9.85547 422.674 10.5869C422.08 11.3184 421.782 12.3574 421.782 13.7041V14.3809C421.782 15.7139 422.083 16.7495 422.685 17.4878C423.286 18.2192 424.103 18.585 425.135 18.585C426.202 18.585 427.022 18.2261 427.596 17.5083C428.177 16.7837 428.468 15.7412 428.468 14.3809V13.6733ZM438.375 8.0542L442.384 17.3955L446.373 8.0542H448.844V20H446.958V15.8882L447.153 10.4229L443.071 20H441.677L437.606 10.4639L437.801 15.8882V20H435.914V8.0542H438.375ZM456.732 15.5088V20H454.835V8.0542H459.623C461.018 8.0542 462.129 8.396 462.956 9.07959C463.783 9.75635 464.197 10.6689 464.197 11.8174C464.197 12.9795 463.797 13.8853 462.997 14.5347C462.197 15.1841 461.066 15.5088 459.603 15.5088H456.732ZM456.732 13.9502H459.623C460.471 13.9502 461.127 13.769 461.592 13.4067C462.057 13.0444 462.289 12.5215 462.289 11.8379C462.289 11.1816 462.057 10.6519 461.592 10.2485C461.127 9.83838 460.488 9.62988 459.675 9.62305H456.732V13.9502ZM478.616 8.0542V16.0522C478.616 17.2964 478.188 18.2944 477.334 19.0464C476.479 19.7915 475.338 20.1641 473.909 20.1641C472.474 20.1641 471.335 19.8052 470.495 19.0874C469.654 18.3628 469.223 17.3784 469.203 16.1343V8.0542H471.079V16.0522C471.079 16.8794 471.322 17.5151 471.807 17.9595C472.299 18.397 473 18.6157 473.909 18.6157C474.805 18.6157 475.495 18.4004 475.98 17.9697C476.473 17.5322 476.719 16.8931 476.719 16.0522V8.0542H478.616ZM493.404 9.62305H489.312V20H487.416V9.62305H483.345V8.0542H493.404V9.62305ZM505.741 14.6064H500.286V18.4517H506.633V20H498.389V8.0542H506.572V9.62305H500.286V13.0479H505.741V14.6064ZM516.53 15.396H513.67V20H511.773V8.0542H516.141C517.597 8.0542 518.718 8.37207 519.504 9.00781C520.297 9.64355 520.694 10.5425 520.694 11.7046C520.694 13.2632 519.89 14.3467 518.284 14.9551L521.237 19.8975V20H519.207L516.53 15.396ZM513.67 13.8477H516.192C516.992 13.8477 517.624 13.6631 518.089 13.2939C518.561 12.918 518.797 12.4121 518.797 11.7764C518.797 11.0928 518.568 10.563 518.11 10.187C517.652 9.81104 516.992 9.62305 516.131 9.62305H513.67V13.8477ZM533 16.9443C533 16.3975 532.792 15.9736 532.375 15.6729C531.965 15.3721 531.257 15.0952 530.252 14.8423C529.247 14.5894 528.451 14.3159 527.863 14.022C526.53 13.3521 525.864 12.4053 525.864 11.1816C525.864 10.2041 526.277 9.41113 527.104 8.80273C527.938 8.19434 529.008 7.89014 530.314 7.89014C531.654 7.89014 532.747 8.23193 533.595 8.91553C534.45 9.59912 534.877 10.4741 534.877 11.5405H532.98C532.98 10.8706 532.737 10.3545 532.252 9.99219C531.773 9.62305 531.12 9.43848 530.293 9.43848C529.521 9.43848 528.906 9.59229 528.448 9.8999C527.99 10.2007 527.761 10.6245 527.761 11.1714C527.761 11.6157 527.969 11.9883 528.386 12.2891C528.81 12.5898 529.555 12.877 530.621 13.1504C531.688 13.4238 532.522 13.7349 533.123 14.0835C533.725 14.4253 534.173 14.8286 534.467 15.2935C534.761 15.7583 534.908 16.3018 534.908 16.9238C534.908 17.9287 534.491 18.7217 533.657 19.3027C532.829 19.877 531.736 20.1641 530.375 20.1641C528.96 20.1641 527.784 19.8188 526.848 19.1284C525.918 18.4312 525.453 17.5288 525.453 16.4214H527.361C527.361 17.1187 527.624 17.6621 528.15 18.0518C528.677 18.4414 529.418 18.6362 530.375 18.6362C531.237 18.6362 531.889 18.4824 532.334 18.1748C532.778 17.8604 533 17.4502 533 16.9443Z" fill="#FFD3C5"/>
<path d="M665.312 15.5088V20H663.415V8.0542H668.204C669.598 8.0542 670.709 8.396 671.536 9.07959C672.363 9.75635 672.777 10.6689 672.777 11.8174C672.777 12.9795 672.377 13.8853 671.577 14.5347C670.777 15.1841 669.646 15.5088 668.183 15.5088H665.312ZM665.312 13.9502H668.204C669.051 13.9502 669.708 13.769 670.172 13.4067C670.637 13.0444 670.87 12.5215 670.87 11.8379C670.87 11.1816 670.637 10.6519 670.172 10.2485C669.708 9.83838 669.068 9.62988 668.255 9.62305H665.312V13.9502ZM690.096 20H688.199V14.8936H682.005V20H680.108V8.0542H682.005V13.335H688.199V8.0542H690.096V20ZM708.204 14.3809C708.204 16.165 707.732 17.5767 706.789 18.6157C705.846 19.6479 704.581 20.1641 702.995 20.1641C701.43 20.1641 700.165 19.6411 699.201 18.5952C698.244 17.5493 697.766 16.1274 697.766 14.3296V13.6938C697.766 11.9302 698.241 10.522 699.191 9.46924C700.148 8.4165 701.409 7.89014 702.975 7.89014C704.567 7.89014 705.832 8.40967 706.769 9.44873C707.712 10.4878 708.19 11.8789 708.204 13.6221V14.3809ZM706.328 13.6733C706.328 12.3198 706.034 11.2842 705.446 10.5664C704.858 9.84863 704.034 9.48975 702.975 9.48975C701.949 9.48975 701.136 9.85547 700.534 10.5869C699.939 11.3184 699.642 12.3574 699.642 13.7041V14.3809C699.642 15.7139 699.943 16.7495 700.544 17.4878C701.146 18.2192 701.963 18.585 702.995 18.585C704.062 18.585 704.882 18.2261 705.456 17.5083C706.037 16.7837 706.328 15.7412 706.328 14.3809V13.6733ZM725.861 20H723.975L717.771 11.0176V20H715.874V8.0542H717.771L723.975 17.0469V8.0542H725.861V20ZM741.314 14.6064H735.859V18.4517H742.206V20H733.962V8.0542H742.145V9.62305H735.859V13.0479H741.314V14.6064ZM756.264 16.9443C756.264 16.3975 756.056 15.9736 755.639 15.6729C755.229 15.3721 754.521 15.0952 753.516 14.8423C752.511 14.5894 751.715 14.3159 751.127 14.022C749.794 13.3521 749.127 12.4053 749.127 11.1816C749.127 10.2041 749.541 9.41113 750.368 8.80273C751.202 8.19434 752.272 7.89014 753.578 7.89014C754.917 7.89014 756.011 8.23193 756.859 8.91553C757.713 9.59912 758.141 10.4741 758.141 11.5405H756.244C756.244 10.8706 756.001 10.3545 755.516 9.99219C755.037 9.62305 754.384 9.43848 753.557 9.43848C752.785 9.43848 752.169 9.59229 751.711 9.8999C751.253 10.2007 751.024 10.6245 751.024 11.1714C751.024 11.6157 751.233 11.9883 751.65 12.2891C752.074 12.5898 752.819 12.877 753.885 13.1504C754.952 13.4238 755.786 13.7349 756.387 14.0835C756.989 14.4253 757.437 14.8286 757.73 15.2935C758.024 15.7583 758.171 16.3018 758.171 16.9238C758.171 17.9287 757.754 18.7217 756.92 19.3027C756.093 19.877 755 20.1641 753.639 20.1641C752.224 20.1641 751.048 19.8188 750.112 19.1284C749.182 18.4312 748.717 17.5288 748.717 16.4214H750.625C750.625 17.1187 750.888 17.6621 751.414 18.0518C751.94 18.4414 752.682 18.6362 753.639 18.6362C754.5 18.6362 755.153 18.4824 755.598 18.1748C756.042 17.8604 756.264 17.4502 756.264 16.9443Z" fill="white"/>
</svg>
