<svg width="788" height="121" viewBox="0 0 788 121" fill="none" xmlns="http://www.w3.org/2000/svg">
<rect y="119" width="788" height="2" fill="#345B6B"/>
<path d="M10.9922 16.1343C10.8555 17.4126 10.3564 18.4038 9.49512 19.1079C8.63379 19.812 7.48877 20.1641 6.06006 20.1641C4.52881 20.1641 3.29834 19.6616 2.36865 18.6567C1.4458 17.645 0.984375 16.2539 0.984375 14.4834V13.5195C0.984375 12.3984 1.19287 11.4141 1.60986 10.5664C2.03369 9.71191 2.63867 9.05225 3.4248 8.5874C4.21777 8.12256 5.13379 7.89014 6.17285 7.89014C7.56738 7.89014 8.68506 8.25244 9.52588 8.97705C10.3735 9.69482 10.8623 10.6929 10.9922 11.9712H9.09521C8.97217 11.0825 8.66797 10.4399 8.18262 10.0435C7.7041 9.64697 7.03418 9.44873 6.17285 9.44873C5.12695 9.44873 4.31689 9.79736 3.74268 10.4946C3.17529 11.1851 2.88818 12.1763 2.88135 13.4683V14.5552C2.88135 15.8472 3.15137 16.8486 3.69141 17.5596C4.23828 18.2637 5.02783 18.6157 6.06006 18.6157C6.98291 18.6157 7.68359 18.4277 8.16211 18.0518C8.64746 17.6689 8.9585 17.0298 9.09521 16.1343H10.9922ZM26.3443 14.3809C26.3443 16.165 25.8727 17.5767 24.9293 18.6157C23.9859 19.6479 22.7213 20.1641 21.1354 20.1641C19.5699 20.1641 18.3053 19.6411 17.3414 18.5952C16.3844 17.5493 15.9059 16.1274 15.9059 14.3296V13.6938C15.9059 11.9302 16.381 10.522 17.3312 9.46924C18.2882 8.4165 19.5494 7.89014 21.1148 7.89014C22.7076 7.89014 23.9723 8.40967 24.9088 9.44873C25.8521 10.4878 26.3307 11.8789 26.3443 13.6221V14.3809ZM24.4679 13.6733C24.4679 12.3198 24.1739 11.2842 23.586 10.5664C22.9981 9.84863 22.1744 9.48975 21.1148 9.48975C20.0895 9.48975 19.276 9.85547 18.6744 10.5869C18.0797 11.3184 17.7823 12.3574 17.7823 13.7041V14.3809C17.7823 15.7139 18.0831 16.7495 18.6847 17.4878C19.2862 18.2192 20.1031 18.585 21.1354 18.585C22.2018 18.585 23.0221 18.2261 23.5963 17.5083C24.1773 16.7837 24.4679 15.7412 24.4679 14.3809V13.6733ZM34.3752 8.0542L38.3845 17.3955L42.3732 8.0542H44.8444V20H42.9577V15.8882L43.1525 10.4229L39.0715 20H37.677L33.6062 10.4639L33.801 15.8882V20H31.9143V8.0542H34.3752ZM52.7317 15.5088V20H50.8348V8.0542H55.6233C57.0179 8.0542 58.1287 8.396 58.9559 9.07959C59.783 9.75635 60.1966 10.6689 60.1966 11.8174C60.1966 12.9795 59.7967 13.8853 58.9969 14.5347C58.1971 15.1841 57.0657 15.5088 55.6028 15.5088H52.7317ZM52.7317 13.9502H55.6233C56.471 13.9502 57.1272 13.769 57.5921 13.4067C58.0569 13.0444 58.2894 12.5215 58.2894 11.8379C58.2894 11.1816 58.0569 10.6519 57.5921 10.2485C57.1272 9.83838 56.4881 9.62988 55.6746 9.62305H52.7317V13.9502ZM74.6156 8.0542V16.0522C74.6156 17.2964 74.1884 18.2944 73.3339 19.0464C72.4794 19.7915 71.3378 20.1641 69.9091 20.1641C68.4735 20.1641 67.3354 19.8052 66.4945 19.0874C65.6537 18.3628 65.223 17.3784 65.2025 16.1343V8.0542H67.079V16.0522C67.079 16.8794 67.3217 17.5151 67.807 17.9595C68.2992 18.397 68.9999 18.6157 69.9091 18.6157C70.8046 18.6157 71.495 18.4004 71.9804 17.9697C72.4726 17.5322 72.7187 16.8931 72.7187 16.0522V8.0542H74.6156ZM89.4038 9.62305H85.3125V20H83.4155V9.62305H79.3447V8.0542H89.4038V9.62305ZM96.4298 20H94.5226V8.0542H96.4298V20ZM112.53 20H110.644L104.44 11.0176V20H102.543V8.0542H104.44L110.644 17.0469V8.0542H112.53V20ZM128.159 18.4619C127.708 19.0293 127.083 19.4565 126.283 19.7437C125.49 20.0239 124.577 20.1641 123.545 20.1641C121.918 20.1641 120.613 19.6548 119.628 18.6362C118.644 17.6177 118.145 16.2471 118.131 14.5244V13.6016C118.131 11.8105 118.586 10.4126 119.495 9.40771C120.411 8.396 121.696 7.89014 123.35 7.89014C124.718 7.89014 125.815 8.21143 126.642 8.854C127.469 9.49658 127.975 10.4365 128.159 11.6738H126.273C126.013 10.1904 125.046 9.44873 123.371 9.44873C122.284 9.44873 121.457 9.80078 120.889 10.5049C120.322 11.209 120.038 12.2412 120.038 13.6016V14.4629C120.038 15.7617 120.353 16.7803 120.982 17.5186C121.617 18.25 122.482 18.6157 123.576 18.6157C124.82 18.6157 125.719 18.3628 126.273 17.8569V15.4165H123.391V13.9399H128.159V18.4619ZM152.291 20H150.404L144.201 11.0176V20H142.304V8.0542H144.201L150.404 17.0469V8.0542H152.291V20ZM165.644 14.6064H160.189V18.4517H166.536V20H158.292V8.0542H166.474V9.62305H160.189V13.0479H165.644V14.6064ZM180.729 9.62305H176.638V20H174.741V9.62305H170.67V8.0542H180.729V9.62305ZM188.719 16.9854L188.832 17.8057L188.986 17.1494L191.529 8.0542H193.221L195.722 17.1802L195.856 17.7852L195.979 16.9648L198.009 8.0542H199.896L196.84 20H195.056L192.39 10.5972L192.38 10.5459L192.369 10.5972L189.621 20H187.847L184.802 8.0542H186.679L188.719 16.9854ZM214.848 14.3809C214.848 16.165 214.376 17.5767 213.433 18.6157C212.49 19.6479 211.225 20.1641 209.639 20.1641C208.074 20.1641 206.809 19.6411 205.845 18.5952C204.888 17.5493 204.41 16.1274 204.41 14.3296V13.6938C204.41 11.9302 204.885 10.522 205.835 9.46924C206.792 8.4165 208.053 7.89014 209.619 7.89014C211.211 7.89014 212.476 8.40967 213.413 9.44873C214.356 10.4878 214.834 11.8789 214.848 13.6221V14.3809ZM212.972 13.6733C212.972 12.3198 212.678 11.2842 212.09 10.5664C211.502 9.84863 210.678 9.48975 209.619 9.48975C208.593 9.48975 207.78 9.85547 207.178 10.5869C206.583 11.3184 206.286 12.3574 206.286 13.7041V14.3809C206.286 15.7139 206.587 16.7495 207.188 17.4878C207.79 18.2192 208.607 18.585 209.639 18.585C210.705 18.585 211.526 18.2261 212.1 17.5083C212.681 16.7837 212.972 15.7412 212.972 14.3809V13.6733ZM225.176 15.396H222.315V20H220.418V8.0542H224.786C226.242 8.0542 227.363 8.37207 228.149 9.00781C228.942 9.64355 229.339 10.5425 229.339 11.7046C229.339 13.2632 228.536 14.3467 226.929 14.9551L229.882 19.8975V20H227.852L225.176 15.396ZM222.315 13.8477H224.837C225.637 13.8477 226.27 13.6631 226.734 13.2939C227.206 12.918 227.442 12.4121 227.442 11.7764C227.442 11.0928 227.213 10.563 226.755 10.187C226.297 9.81104 225.637 9.62305 224.776 9.62305H222.315V13.8477ZM238.231 14.6782L236.724 16.1343V20H234.827V8.0542H236.724V13.7451L238.057 12.2686L242.128 8.0542H244.455L239.544 13.376L244.804 20H242.497L238.231 14.6782Z" fill="white"/>
<path d="M8.59277 69.1392H3.26074L2.13281 72H0.194824L5.10645 60.0542H6.80859L11.6484 72H9.7207L8.59277 69.1392ZM3.87598 67.5908H7.98779L5.94727 62.3716L3.87598 67.5908ZM25.8727 68.1343C25.7359 69.4126 25.2369 70.4038 24.3756 71.1079C23.5143 71.812 22.3692 72.1641 20.9405 72.1641C19.4093 72.1641 18.1788 71.6616 17.2491 70.6567C16.3263 69.645 15.8648 68.2539 15.8648 66.4834V65.5195C15.8648 64.3984 16.0733 63.4141 16.4903 62.5664C16.9142 61.7119 17.5191 61.0522 18.3053 60.5874C19.0982 60.1226 20.0143 59.8901 21.0533 59.8901C22.4479 59.8901 23.5655 60.2524 24.4063 60.9771C25.254 61.6948 25.7428 62.6929 25.8727 63.9712H23.9757C23.8526 63.0825 23.5484 62.4399 23.0631 62.0435C22.5846 61.647 21.9146 61.4487 21.0533 61.4487C20.0074 61.4487 19.1974 61.7974 18.6231 62.4946C18.0558 63.1851 17.7687 64.1763 17.7618 65.4683V66.5552C17.7618 67.8472 18.0318 68.8486 18.5719 69.5596C19.1187 70.2637 19.9083 70.6157 20.9405 70.6157C21.8634 70.6157 22.5641 70.4277 23.0426 70.0518C23.5279 69.6689 23.839 69.0298 23.9757 68.1343H25.8727ZM38.3947 69.1392H33.0627L31.9348 72H29.9968L34.9084 60.0542H36.6105L41.4504 72H39.5227L38.3947 69.1392ZM33.6779 67.5908H37.7897L35.7492 62.3716L33.6779 67.5908ZM46.241 72V60.0542H49.9427C51.0501 60.0542 52.0311 60.2832 52.8855 60.7412C53.7469 61.1924 54.4168 61.8384 54.8953 62.6792C55.3738 63.52 55.6233 64.4839 55.6438 65.5708V66.3604C55.6438 68.083 55.1106 69.4536 54.0442 70.4722C52.9847 71.4907 51.556 72 49.7581 72H46.241ZM48.138 61.623V70.4517H49.8196C51.0911 70.4517 52.0652 70.0962 52.742 69.3853C53.4188 68.6743 53.7571 67.6626 53.7571 66.3501V65.6938C53.7571 64.3813 53.4324 63.3765 52.783 62.6792C52.1404 61.9751 51.1937 61.623 49.9427 61.623H48.138ZM68.5556 66.6064H63.1005V70.4517H69.4477V72H61.2035V60.0542H69.3861V61.623H63.1005V65.0479H68.5556V66.6064ZM77.0479 60.0542L81.0571 69.3955L85.0459 60.0542H87.5171V72H85.6304V67.8882L85.8252 62.4229L81.7441 72H80.3496L76.2788 62.4639L76.4736 67.8882V72H74.5869V60.0542H77.0479ZM95.548 72H93.6407V60.0542H95.548V72ZM111.238 68.1343C111.102 69.4126 110.603 70.4038 109.741 71.1079C108.88 71.812 107.735 72.1641 106.306 72.1641C104.775 72.1641 103.545 71.6616 102.615 70.6567C101.692 69.645 101.231 68.2539 101.231 66.4834V65.5195C101.231 64.3984 101.439 63.4141 101.856 62.5664C102.28 61.7119 102.885 61.0522 103.671 60.5874C104.464 60.1226 105.38 59.8901 106.419 59.8901C107.814 59.8901 108.931 60.2524 109.772 60.9771C110.62 61.6948 111.109 62.6929 111.238 63.9712H109.342C109.218 63.0825 108.914 62.4399 108.429 62.0435C107.95 61.647 107.28 61.4487 106.419 61.4487C105.373 61.4487 104.563 61.7974 103.989 62.4946C103.422 63.1851 103.134 64.1763 103.128 65.4683V66.5552C103.128 67.8472 103.398 68.8486 103.938 69.5596C104.485 70.2637 105.274 70.6157 106.306 70.6157C107.229 70.6157 107.93 70.4277 108.408 70.0518C108.894 69.6689 109.205 69.0298 109.342 68.1343H111.238ZM129.7 67.396H126.839V72H124.942V60.0542H129.31C130.766 60.0542 131.887 60.3721 132.673 61.0078C133.466 61.6436 133.863 62.5425 133.863 63.7046C133.863 65.2632 133.059 66.3467 131.453 66.9551L134.406 71.8975V72H132.376L129.7 67.396ZM126.839 65.8477H129.361C130.161 65.8477 130.793 65.6631 131.258 65.2939C131.73 64.918 131.966 64.4121 131.966 63.7764C131.966 63.0928 131.737 62.563 131.279 62.187C130.821 61.811 130.161 61.623 129.3 61.623H126.839V65.8477ZM146.703 66.6064H141.248V70.4517H147.595V72H139.351V60.0542H147.533V61.623H141.248V65.0479H146.703V66.6064ZM159.553 68.9443C159.553 68.3975 159.344 67.9736 158.927 67.6729C158.517 67.3721 157.81 67.0952 156.805 66.8423C155.8 66.5894 155.004 66.3159 154.416 66.022C153.083 65.3521 152.416 64.4053 152.416 63.1816C152.416 62.2041 152.83 61.4111 153.657 60.8027C154.491 60.1943 155.561 59.8901 156.866 59.8901C158.206 59.8901 159.3 60.2319 160.148 60.9155C161.002 61.5991 161.429 62.4741 161.429 63.5405H159.532C159.532 62.8706 159.29 62.3545 158.804 61.9922C158.326 61.623 157.673 61.4385 156.846 61.4385C156.073 61.4385 155.458 61.5923 155 61.8999C154.542 62.2007 154.313 62.6245 154.313 63.1714C154.313 63.6157 154.522 63.9883 154.939 64.2891C155.362 64.5898 156.108 64.877 157.174 65.1504C158.24 65.4238 159.074 65.7349 159.676 66.0835C160.277 66.4253 160.725 66.8286 161.019 67.2935C161.313 67.7583 161.46 68.3018 161.46 68.9238C161.46 69.9287 161.043 70.7217 160.209 71.3027C159.382 71.877 158.288 72.1641 156.928 72.1641C155.513 72.1641 154.337 71.8188 153.4 71.1284C152.471 70.4312 152.006 69.5288 152.006 68.4214H153.913C153.913 69.1187 154.176 69.6621 154.703 70.0518C155.229 70.4414 155.971 70.6362 156.928 70.6362C157.789 70.6362 158.442 70.4824 158.886 70.1748C159.331 69.8604 159.553 69.4502 159.553 68.9443ZM174.064 66.6064H168.609V70.4517H174.956V72H166.712V60.0542H174.895V61.623H168.609V65.0479H174.064V66.6064ZM187.273 69.1392H181.941L180.813 72H178.875L183.787 60.0542H185.489L190.329 72H188.401L187.273 69.1392ZM182.556 67.5908H186.668L184.628 62.3716L182.556 67.5908ZM199.877 67.396H197.017V72H195.12V60.0542H199.488C200.944 60.0542 202.065 60.3721 202.851 61.0078C203.644 61.6436 204.04 62.5425 204.04 63.7046C204.04 65.2632 203.237 66.3467 201.631 66.9551L204.584 71.8975V72H202.554L199.877 67.396ZM197.017 65.8477H199.539C200.339 65.8477 200.971 65.6631 201.436 65.2939C201.908 64.918 202.143 64.4121 202.143 63.7764C202.143 63.0928 201.914 62.563 201.456 62.187C200.998 61.811 200.339 61.623 199.477 61.623H197.017V65.8477ZM219.105 68.1343C218.969 69.4126 218.47 70.4038 217.608 71.1079C216.747 71.812 215.602 72.1641 214.173 72.1641C212.642 72.1641 211.412 71.6616 210.482 70.6567C209.559 69.645 209.098 68.2539 209.098 66.4834V65.5195C209.098 64.3984 209.306 63.4141 209.723 62.5664C210.147 61.7119 210.752 61.0522 211.538 60.5874C212.331 60.1226 213.247 59.8901 214.286 59.8901C215.681 59.8901 216.798 60.2524 217.639 60.9771C218.487 61.6948 218.976 62.6929 219.105 63.9712H217.208C217.085 63.0825 216.781 62.4399 216.296 62.0435C215.817 61.647 215.147 61.4487 214.286 61.4487C213.24 61.4487 212.43 61.7974 211.856 62.4946C211.289 63.1851 211.001 64.1763 210.995 65.4683V66.5552C210.995 67.8472 211.265 68.8486 211.805 69.5596C212.352 70.2637 213.141 70.6157 214.173 70.6157C215.096 70.6157 215.797 70.4277 216.275 70.0518C216.761 69.6689 217.072 69.0298 217.208 68.1343H219.105ZM234.437 72H232.54V66.8936H226.347V72H224.45V60.0542H226.347V65.335H232.54V60.0542H234.437V72ZM247.79 66.6064H242.335V70.4517H248.682V72H240.438V60.0542H248.62V61.623H242.335V65.0479H247.79V66.6064ZM258.579 67.396H255.718V72H253.821V60.0542H258.189C259.645 60.0542 260.766 60.3721 261.553 61.0078C262.346 61.6436 262.742 62.5425 262.742 63.7046C262.742 65.2632 261.939 66.3467 260.332 66.9551L263.285 71.8975V72H261.255L258.579 67.396ZM255.718 65.8477H258.241C259.04 65.8477 259.673 65.6631 260.137 65.2939C260.609 64.918 260.845 64.4121 260.845 63.7764C260.845 63.0928 260.616 62.563 260.158 62.187C259.7 61.811 259.04 61.623 258.179 61.623H255.718V65.8477ZM275.049 68.9443C275.049 68.3975 274.84 67.9736 274.423 67.6729C274.013 67.3721 273.306 67.0952 272.301 66.8423C271.296 66.5894 270.499 66.3159 269.912 66.022C268.579 65.3521 267.912 64.4053 267.912 63.1816C267.912 62.2041 268.326 61.4111 269.153 60.8027C269.987 60.1943 271.057 59.8901 272.362 59.8901C273.702 59.8901 274.796 60.2319 275.643 60.9155C276.498 61.5991 276.925 62.4741 276.925 63.5405H275.028C275.028 62.8706 274.786 62.3545 274.3 61.9922C273.822 61.623 273.169 61.4385 272.342 61.4385C271.569 61.4385 270.954 61.5923 270.496 61.8999C270.038 62.2007 269.809 62.6245 269.809 63.1714C269.809 63.6157 270.017 63.9883 270.434 64.2891C270.858 64.5898 271.603 64.877 272.67 65.1504C273.736 65.4238 274.57 65.7349 275.172 66.0835C275.773 66.4253 276.221 66.8286 276.515 67.2935C276.809 67.7583 276.956 68.3018 276.956 68.9238C276.956 69.9287 276.539 70.7217 275.705 71.3027C274.878 71.877 273.784 72.1641 272.424 72.1641C271.009 72.1641 269.833 71.8188 268.896 71.1284C267.967 70.4312 267.502 69.5288 267.502 68.4214H269.409C269.409 69.1187 269.672 69.6621 270.199 70.0518C270.725 70.4414 271.467 70.6362 272.424 70.6362C273.285 70.6362 273.938 70.4824 274.382 70.1748C274.827 69.8604 275.049 69.4502 275.049 68.9443Z" fill="white"/>
<path d="M412.767 66.6064H407.312V70.4517H413.659V72H405.415V60.0542H413.598V61.623H407.312V65.0479H412.767V66.6064ZM428.786 72H426.899L420.695 63.0176V72H418.798V60.0542H420.695L426.899 69.0469V60.0542H428.786V72ZM443.841 61.623H439.749V72H437.852V61.623H433.781V60.0542H443.841V61.623ZM458.813 72H456.916V66.8936H450.723V72H448.826V60.0542H450.723V65.335H456.916V60.0542H458.813V72ZM474.001 60.0542V68.0522C474.001 69.2964 473.574 70.2944 472.72 71.0464C471.865 71.7915 470.724 72.1641 469.295 72.1641C467.859 72.1641 466.721 71.8052 465.88 71.0874C465.039 70.3628 464.609 69.3784 464.588 68.1343V60.0542H466.465V68.0522C466.465 68.8794 466.707 69.5151 467.193 69.9595C467.685 70.397 468.386 70.6157 469.295 70.6157C470.19 70.6157 470.881 70.4004 471.366 69.9697C471.858 69.5322 472.104 68.8931 472.104 68.0522V60.0542H474.001ZM486.554 68.9443C486.554 68.3975 486.346 67.9736 485.929 67.6729C485.519 67.3721 484.811 67.0952 483.806 66.8423C482.801 66.5894 482.005 66.3159 481.417 66.022C480.084 65.3521 479.417 64.4053 479.417 63.1816C479.417 62.2041 479.831 61.4111 480.658 60.8027C481.492 60.1943 482.562 59.8901 483.868 59.8901C485.208 59.8901 486.301 60.2319 487.149 60.9155C488.003 61.5991 488.431 62.4741 488.431 63.5405H486.534C486.534 62.8706 486.291 62.3545 485.806 61.9922C485.327 61.623 484.674 61.4385 483.847 61.4385C483.075 61.4385 482.459 61.5923 482.001 61.8999C481.543 62.2007 481.314 62.6245 481.314 63.1714C481.314 63.6157 481.523 63.9883 481.94 64.2891C482.364 64.5898 483.109 64.877 484.175 65.1504C485.242 65.4238 486.076 65.7349 486.677 66.0835C487.279 66.4253 487.727 66.8286 488.021 67.2935C488.314 67.7583 488.461 68.3018 488.461 68.9238C488.461 69.9287 488.044 70.7217 487.21 71.3027C486.383 71.877 485.29 72.1641 483.929 72.1641C482.514 72.1641 481.338 71.8188 480.402 71.1284C479.472 70.4312 479.007 69.5288 479.007 68.4214H480.915C480.915 69.1187 481.178 69.6621 481.704 70.0518C482.23 70.4414 482.972 70.6362 483.929 70.6362C484.791 70.6362 485.443 70.4824 485.888 70.1748C486.332 69.8604 486.554 69.4502 486.554 68.9443ZM495.754 72H493.847V60.0542H495.754V72ZM509.045 69.1392H503.713L502.585 72H500.647L505.559 60.0542H507.261L512.101 72H510.173L509.045 69.1392ZM504.328 67.5908H508.44L506.4 62.3716L504.328 67.5908ZM523.71 68.9443C523.71 68.3975 523.502 67.9736 523.085 67.6729C522.675 67.3721 521.967 67.0952 520.962 66.8423C519.957 66.5894 519.161 66.3159 518.573 66.022C517.24 65.3521 516.574 64.4053 516.574 63.1816C516.574 62.2041 516.987 61.4111 517.814 60.8027C518.648 60.1943 519.718 59.8901 521.024 59.8901C522.364 59.8901 523.457 60.2319 524.305 60.9155C525.159 61.5991 525.587 62.4741 525.587 63.5405H523.69C523.69 62.8706 523.447 62.3545 522.962 61.9922C522.483 61.623 521.83 61.4385 521.003 61.4385C520.231 61.4385 519.616 61.5923 519.158 61.8999C518.7 62.2007 518.471 62.6245 518.471 63.1714C518.471 63.6157 518.679 63.9883 519.096 64.2891C519.52 64.5898 520.265 64.877 521.331 65.1504C522.398 65.4238 523.232 65.7349 523.833 66.0835C524.435 66.4253 524.883 66.8286 525.177 67.2935C525.471 67.7583 525.617 68.3018 525.617 68.9238C525.617 69.9287 525.2 70.7217 524.367 71.3027C523.539 71.877 522.446 72.1641 521.085 72.1641C519.67 72.1641 518.494 71.8188 517.558 71.1284C516.628 70.4312 516.163 69.5288 516.163 68.4214H518.071C518.071 69.1187 518.334 69.6621 518.86 70.0518C519.387 70.4414 520.128 70.6362 521.085 70.6362C521.947 70.6362 522.599 70.4824 523.044 70.1748C523.488 69.8604 523.71 69.4502 523.71 68.9443ZM539.924 61.623H535.832V72H533.935V61.623H529.865V60.0542H539.924V61.623ZM551.728 68.9443C551.728 68.3975 551.52 67.9736 551.103 67.6729C550.692 67.3721 549.985 67.0952 548.98 66.8423C547.975 66.5894 547.179 66.3159 546.591 66.022C545.258 65.3521 544.591 64.4053 544.591 63.1816C544.591 62.2041 545.005 61.4111 545.832 60.8027C546.666 60.1943 547.736 59.8901 549.042 59.8901C550.381 59.8901 551.475 60.2319 552.323 60.9155C553.177 61.5991 553.604 62.4741 553.604 63.5405H551.708C551.708 62.8706 551.465 62.3545 550.979 61.9922C550.501 61.623 549.848 61.4385 549.021 61.4385C548.249 61.4385 547.633 61.5923 547.175 61.8999C546.717 62.2007 546.488 62.6245 546.488 63.1714C546.488 63.6157 546.697 63.9883 547.114 64.2891C547.538 64.5898 548.283 64.877 549.349 65.1504C550.416 65.4238 551.25 65.7349 551.851 66.0835C552.453 66.4253 552.9 66.8286 553.194 67.2935C553.488 67.7583 553.635 68.3018 553.635 68.9238C553.635 69.9287 553.218 70.7217 552.384 71.3027C551.557 71.877 550.463 72.1641 549.103 72.1641C547.688 72.1641 546.512 71.8188 545.576 71.1284C544.646 70.4312 544.181 69.5288 544.181 68.4214H546.088C546.088 69.1187 546.352 69.6621 546.878 70.0518C547.404 70.4414 548.146 70.6362 549.103 70.6362C549.964 70.6362 550.617 70.4824 551.062 70.1748C551.506 69.8604 551.728 69.4502 551.728 68.9443Z" fill="#FFD3C5"/>
<path d="M670.767 66.6064H665.312V70.4517H671.659V72H663.415V60.0542H671.598V61.623H665.312V65.0479H670.767V66.6064ZM680.9 69.0059L681.156 69.9697L681.423 69.0264L684.704 60.0542H686.734L682.048 72H680.275L675.588 60.0542H677.629L680.9 69.0059ZM698.867 66.6064H693.412V70.4517H699.759V72H691.515V60.0542H699.697V61.623H693.412V65.0479H698.867V66.6064ZM709.656 67.396H706.795V72H704.898V60.0542H709.266C710.722 60.0542 711.844 60.3721 712.63 61.0078C713.423 61.6436 713.819 62.5425 713.819 63.7046C713.819 65.2632 713.016 66.3467 711.409 66.9551L714.363 71.8975V72H712.332L709.656 67.396ZM706.795 65.8477H709.318C710.117 65.8477 710.75 65.6631 711.215 65.2939C711.686 64.918 711.922 64.4121 711.922 63.7764C711.922 63.0928 711.693 62.563 711.235 62.187C710.777 61.811 710.117 61.623 709.256 61.623H706.795V65.8477ZM723.162 65.9912L726.362 60.0542H728.495L724.085 67.8267V72H722.188V67.7139L717.841 60.0542H719.974L723.162 65.9912ZM733.224 72V60.0542H737.387C738.815 60.0542 739.909 60.3345 740.668 60.895C741.427 61.4487 741.806 62.2554 741.806 63.3149C741.806 63.8687 741.642 64.3608 741.314 64.7915C740.993 65.2222 740.531 65.5503 739.93 65.7759C740.606 65.9399 741.143 66.2783 741.54 66.791C741.936 67.2969 742.134 67.895 742.134 68.5854C742.134 69.6655 741.762 70.5029 741.017 71.0977C740.271 71.6924 739.212 71.9932 737.838 72H733.224ZM735.121 66.5654V70.4517H737.807C738.593 70.4517 739.195 70.2842 739.612 69.9492C740.029 69.6143 740.237 69.1562 740.237 68.5752C740.237 67.2354 739.434 66.5654 737.828 66.5654H735.121ZM735.121 65.1196H737.52C738.258 65.1196 738.839 64.9761 739.263 64.689C739.687 64.395 739.899 63.9644 739.899 63.397C739.899 62.2485 739.116 61.6572 737.551 61.623H735.121V65.1196ZM757.702 66.3809C757.702 68.165 757.23 69.5767 756.287 70.6157C755.343 71.6479 754.079 72.1641 752.493 72.1641C750.927 72.1641 749.663 71.6411 748.699 70.5952C747.742 69.5493 747.263 68.1274 747.263 66.3296V65.6938C747.263 63.9302 747.738 62.522 748.689 61.4692C749.646 60.4165 750.907 59.8901 752.472 59.8901C754.065 59.8901 755.33 60.4097 756.266 61.4487C757.21 62.4878 757.688 63.8789 757.702 65.6221V66.3809ZM755.825 65.6733C755.825 64.3198 755.531 63.2842 754.943 62.5664C754.356 61.8486 753.532 61.4897 752.472 61.4897C751.447 61.4897 750.633 61.8555 750.032 62.5869C749.437 63.3184 749.14 64.3574 749.14 65.7041V66.3809C749.14 67.7139 749.441 68.7495 750.042 69.4878C750.644 70.2192 751.461 70.585 752.493 70.585C753.559 70.585 754.379 70.2261 754.954 69.5083C755.535 68.7837 755.825 67.7412 755.825 66.3809V65.6733ZM763.272 72V60.0542H766.973C768.081 60.0542 769.062 60.2832 769.916 60.7412C770.778 61.1924 771.447 61.8384 771.926 62.6792C772.404 63.52 772.654 64.4839 772.675 65.5708V66.3604C772.675 68.083 772.141 69.4536 771.075 70.4722C770.015 71.4907 768.587 72 766.789 72H763.272ZM765.169 61.623V70.4517H766.85C768.122 70.4517 769.096 70.0962 769.773 69.3853C770.449 68.6743 770.788 67.6626 770.788 66.3501V65.6938C770.788 64.3813 770.463 63.3765 769.814 62.6792C769.171 61.9751 768.224 61.623 766.973 61.623H765.169ZM782.049 65.9912L785.248 60.0542H787.381L782.971 67.8267V72H781.075V67.7139L776.727 60.0542H778.86L782.049 65.9912Z" fill="white"/>
<path d="M407.456 20H405.548V8.0542H407.456V20ZM423.556 20H421.67L415.466 11.0176V20H413.569V8.0542H415.466L421.67 17.0469V8.0542H423.556V20ZM438.611 9.62305H434.52V20H432.623V9.62305H428.552V8.0542H438.611V9.62305ZM450.949 14.6064H445.493V18.4517H451.841V20H443.596V8.0542H451.779V9.62305H445.493V13.0479H450.949V14.6064ZM461.738 15.396H458.877V20H456.98V8.0542H461.348C462.804 8.0542 463.925 8.37207 464.711 9.00781C465.504 9.64355 465.901 10.5425 465.901 11.7046C465.901 13.2632 465.098 14.3467 463.491 14.9551L466.444 19.8975V20H464.414L461.738 15.396ZM458.877 13.8477H461.399C462.199 13.8477 462.831 13.6631 463.296 13.2939C463.768 12.918 464.004 12.4121 464.004 11.7764C464.004 11.0928 463.775 10.563 463.317 10.187C462.859 9.81104 462.199 9.62305 461.338 9.62305H458.877V13.8477ZM481.376 20H479.489L473.286 11.0176V20H471.389V8.0542H473.286L479.489 17.0469V8.0542H481.376V20ZM494.729 14.6064H489.274V18.4517H495.621V20H487.377V8.0542H495.559V9.62305H489.274V13.0479H494.729V14.6064ZM509.814 9.62305H505.723V20H503.826V9.62305H499.755V8.0542H509.814V9.62305Z" fill="#FFD3C5"/>
<path d="M667.383 14.4321H662.379V12.8838H667.383V14.4321Z" fill="white"/>
</svg>
