<svg width="788" height="77" viewBox="0 0 788 77" fill="none" xmlns="http://www.w3.org/2000/svg">
<path d="M10.9922 16.1343C10.8555 17.4126 10.3564 18.4038 9.49512 19.1079C8.63379 19.812 7.48877 20.1641 6.06006 20.1641C4.52881 20.1641 3.29834 19.6616 2.36865 18.6567C1.4458 17.645 0.984375 16.2539 0.984375 14.4834V13.5195C0.984375 12.3984 1.19287 11.4141 1.60986 10.5664C2.03369 9.71191 2.63867 9.05225 3.4248 8.5874C4.21777 8.12256 5.13379 7.89014 6.17285 7.89014C7.56738 7.89014 8.68506 8.25244 9.52588 8.97705C10.3735 9.69482 10.8623 10.6929 10.9922 11.9712H9.09521C8.97217 11.0825 8.66797 10.4399 8.18262 10.0435C7.7041 9.64697 7.03418 9.44873 6.17285 9.44873C5.12695 9.44873 4.31689 9.79736 3.74268 10.4946C3.17529 11.1851 2.88818 12.1763 2.88135 13.4683V14.5552C2.88135 15.8472 3.15137 16.8486 3.69141 17.5596C4.23828 18.2637 5.02783 18.6157 6.06006 18.6157C6.98291 18.6157 7.68359 18.4277 8.16211 18.0518C8.64746 17.6689 8.9585 17.0298 9.09521 16.1343H10.9922ZM26.3443 14.3809C26.3443 16.165 25.8727 17.5767 24.9293 18.6157C23.9859 19.6479 22.7213 20.1641 21.1354 20.1641C19.5699 20.1641 18.3053 19.6411 17.3414 18.5952C16.3844 17.5493 15.9059 16.1274 15.9059 14.3296V13.6938C15.9059 11.9302 16.381 10.522 17.3312 9.46924C18.2882 8.4165 19.5494 7.89014 21.1148 7.89014C22.7076 7.89014 23.9723 8.40967 24.9088 9.44873C25.8521 10.4878 26.3307 11.8789 26.3443 13.6221V14.3809ZM24.4679 13.6733C24.4679 12.3198 24.1739 11.2842 23.586 10.5664C22.9981 9.84863 22.1744 9.48975 21.1148 9.48975C20.0895 9.48975 19.276 9.85547 18.6744 10.5869C18.0797 11.3184 17.7823 12.3574 17.7823 13.7041V14.3809C17.7823 15.7139 18.0831 16.7495 18.6847 17.4878C19.2862 18.2192 20.1031 18.585 21.1354 18.585C22.2018 18.585 23.0221 18.2261 23.5963 17.5083C24.1773 16.7837 24.4679 15.7412 24.4679 14.3809V13.6733ZM34.3752 8.0542L38.3845 17.3955L42.3732 8.0542H44.8444V20H42.9577V15.8882L43.1525 10.4229L39.0715 20H37.677L33.6062 10.4639L33.801 15.8882V20H31.9143V8.0542H34.3752ZM52.7317 15.5088V20H50.8348V8.0542H55.6233C57.0179 8.0542 58.1287 8.396 58.9559 9.07959C59.783 9.75635 60.1966 10.6689 60.1966 11.8174C60.1966 12.9795 59.7967 13.8853 58.9969 14.5347C58.1971 15.1841 57.0657 15.5088 55.6028 15.5088H52.7317ZM52.7317 13.9502H55.6233C56.471 13.9502 57.1272 13.769 57.5921 13.4067C58.0569 13.0444 58.2894 12.5215 58.2894 11.8379C58.2894 11.1816 58.0569 10.6519 57.5921 10.2485C57.1272 9.83838 56.4881 9.62988 55.6746 9.62305H52.7317V13.9502ZM74.6156 8.0542V16.0522C74.6156 17.2964 74.1884 18.2944 73.3339 19.0464C72.4794 19.7915 71.3378 20.1641 69.9091 20.1641C68.4735 20.1641 67.3354 19.8052 66.4945 19.0874C65.6537 18.3628 65.223 17.3784 65.2025 16.1343V8.0542H67.079V16.0522C67.079 16.8794 67.3217 17.5151 67.807 17.9595C68.2992 18.397 68.9999 18.6157 69.9091 18.6157C70.8046 18.6157 71.495 18.4004 71.9804 17.9697C72.4726 17.5322 72.7187 16.8931 72.7187 16.0522V8.0542H74.6156ZM89.4038 9.62305H85.3125V20H83.4155V9.62305H79.3447V8.0542H89.4038V9.62305ZM101.741 14.6064H96.2862V18.4517H102.633V20H94.3893V8.0542H102.572V9.62305H96.2862V13.0479H101.741V14.6064ZM112.53 15.396H109.67V20H107.773V8.0542H112.141C113.597 8.0542 114.718 8.37207 115.504 9.00781C116.297 9.64355 116.694 10.5425 116.694 11.7046C116.694 13.2632 115.89 14.3467 114.284 14.9551L117.237 19.8975V20H115.207L112.53 15.396ZM109.67 13.8477H112.192C112.992 13.8477 113.624 13.6631 114.089 13.2939C114.561 12.918 114.797 12.4121 114.797 11.7764C114.797 11.0928 114.568 10.563 114.11 10.187C113.652 9.81104 112.992 9.62305 112.131 9.62305H109.67V13.8477ZM130.54 20V8.0542H134.242C135.35 8.0542 136.33 8.2832 137.185 8.74121C138.046 9.19238 138.716 9.83838 139.195 10.6792C139.673 11.52 139.923 12.4839 139.943 13.5708V14.3604C139.943 16.083 139.41 17.4536 138.344 18.4722C137.284 19.4907 135.855 20 134.058 20H130.54ZM132.437 9.62305V18.4517H134.119C135.391 18.4517 136.365 18.0962 137.041 17.3853C137.718 16.6743 138.057 15.6626 138.057 14.3501V13.6938C138.057 12.3813 137.732 11.3765 137.082 10.6792C136.44 9.9751 135.493 9.62305 134.242 9.62305H132.437ZM152.855 14.6064H147.4V18.4517H153.747V20H145.503V8.0542H153.686V9.62305H147.4V13.0479H152.855V14.6064ZM165.705 16.9443C165.705 16.3975 165.497 15.9736 165.08 15.6729C164.67 15.3721 163.962 15.0952 162.957 14.8423C161.952 14.5894 161.156 14.3159 160.568 14.022C159.235 13.3521 158.568 12.4053 158.568 11.1816C158.568 10.2041 158.982 9.41113 159.809 8.80273C160.643 8.19434 161.713 7.89014 163.019 7.89014C164.358 7.89014 165.452 8.23193 166.3 8.91553C167.154 9.59912 167.582 10.4741 167.582 11.5405H165.685C165.685 10.8706 165.442 10.3545 164.957 9.99219C164.478 9.62305 163.825 9.43848 162.998 9.43848C162.226 9.43848 161.61 9.59229 161.152 9.8999C160.694 10.2007 160.465 10.6245 160.465 11.1714C160.465 11.6157 160.674 11.9883 161.091 12.2891C161.515 12.5898 162.26 12.877 163.326 13.1504C164.393 13.4238 165.227 13.7349 165.828 14.0835C166.43 14.4253 166.878 14.8286 167.171 15.2935C167.465 15.7583 167.612 16.3018 167.612 16.9238C167.612 17.9287 167.195 18.7217 166.361 19.3027C165.534 19.877 164.441 20.1641 163.08 20.1641C161.665 20.1641 160.489 19.8188 159.553 19.1284C158.623 18.4312 158.158 17.5288 158.158 16.4214H160.066C160.066 17.1187 160.329 17.6621 160.855 18.0518C161.381 18.4414 162.123 18.6362 163.08 18.6362C163.941 18.6362 164.594 18.4824 165.039 18.1748C165.483 17.8604 165.705 17.4502 165.705 16.9443ZM174.905 20H172.998V8.0542H174.905V20ZM190.647 18.4619C190.196 19.0293 189.57 19.4565 188.77 19.7437C187.977 20.0239 187.065 20.1641 186.033 20.1641C184.406 20.1641 183.1 19.6548 182.116 18.6362C181.131 17.6177 180.632 16.2471 180.618 14.5244V13.6016C180.618 11.8105 181.073 10.4126 181.982 9.40771C182.898 8.396 184.183 7.89014 185.838 7.89014C187.205 7.89014 188.302 8.21143 189.129 8.854C189.956 9.49658 190.462 10.4365 190.647 11.6738H188.76C188.5 10.1904 187.533 9.44873 185.858 9.44873C184.771 9.44873 183.944 9.80078 183.377 10.5049C182.809 11.209 182.526 12.2412 182.526 13.6016V14.4629C182.526 15.7617 182.84 16.7803 183.469 17.5186C184.105 18.25 184.97 18.6157 186.063 18.6157C187.307 18.6157 188.206 18.3628 188.76 17.8569V15.4165H185.879V13.9399H190.647V18.4619ZM206.419 20H204.533L198.329 11.0176V20H196.432V8.0542H198.329L204.533 17.0469V8.0542H206.419V20ZM229.833 9.62305H225.742V20H223.845V9.62305H219.774V8.0542H229.833V9.62305ZM244.826 14.3809C244.826 16.165 244.355 17.5767 243.411 18.6157C242.468 19.6479 241.203 20.1641 239.617 20.1641C238.052 20.1641 236.787 19.6411 235.823 18.5952C234.866 17.5493 234.388 16.1274 234.388 14.3296V13.6938C234.388 11.9302 234.863 10.522 235.813 9.46924C236.77 8.4165 238.031 7.89014 239.597 7.89014C241.19 7.89014 242.454 8.40967 243.391 9.44873C244.334 10.4878 244.813 11.8789 244.826 13.6221V14.3809ZM242.95 13.6733C242.95 12.3198 242.656 11.2842 242.068 10.5664C241.48 9.84863 240.656 9.48975 239.597 9.48975C238.571 9.48975 237.758 9.85547 237.156 10.5869C236.562 11.3184 236.264 12.3574 236.264 13.7041V14.3809C236.264 15.7139 236.565 16.7495 237.167 17.4878C237.768 18.2192 238.585 18.585 239.617 18.585C240.684 18.585 241.504 18.2261 242.078 17.5083C242.659 16.7837 242.95 15.7412 242.95 14.3809V13.6733ZM260.404 14.3809C260.404 16.165 259.932 17.5767 258.989 18.6157C258.046 19.6479 256.781 20.1641 255.195 20.1641C253.63 20.1641 252.365 19.6411 251.401 18.5952C250.444 17.5493 249.966 16.1274 249.966 14.3296V13.6938C249.966 11.9302 250.441 10.522 251.391 9.46924C252.348 8.4165 253.609 7.89014 255.175 7.89014C256.767 7.89014 258.032 8.40967 258.969 9.44873C259.912 10.4878 260.39 11.8789 260.404 13.6221V14.3809ZM258.528 13.6733C258.528 12.3198 258.234 11.2842 257.646 10.5664C257.058 9.84863 256.234 9.48975 255.175 9.48975C254.149 9.48975 253.336 9.85547 252.734 10.5869C252.139 11.3184 251.842 12.3574 251.842 13.7041V14.3809C251.842 15.7139 252.143 16.7495 252.744 17.4878C253.346 18.2192 254.163 18.585 255.195 18.585C256.262 18.585 257.082 18.2261 257.656 17.5083C258.237 16.7837 258.528 15.7412 258.528 14.3809V13.6733ZM267.871 18.4517H273.859V20H265.974V8.0542H267.871V18.4517Z" fill="white"/>
<path d="M8.59277 69.1392H3.26074L2.13281 72H0.194824L5.10645 60.0542H6.80859L11.6484 72H9.7207L8.59277 69.1392ZM3.87598 67.5908H7.98779L5.94727 62.3716L3.87598 67.5908ZM25.8727 68.1343C25.7359 69.4126 25.2369 70.4038 24.3756 71.1079C23.5143 71.812 22.3692 72.1641 20.9405 72.1641C19.4093 72.1641 18.1788 71.6616 17.2491 70.6567C16.3263 69.645 15.8648 68.2539 15.8648 66.4834V65.5195C15.8648 64.3984 16.0733 63.4141 16.4903 62.5664C16.9142 61.7119 17.5191 61.0522 18.3053 60.5874C19.0982 60.1226 20.0143 59.8901 21.0533 59.8901C22.4479 59.8901 23.5655 60.2524 24.4063 60.9771C25.254 61.6948 25.7428 62.6929 25.8727 63.9712H23.9757C23.8526 63.0825 23.5484 62.4399 23.0631 62.0435C22.5846 61.647 21.9146 61.4487 21.0533 61.4487C20.0074 61.4487 19.1974 61.7974 18.6231 62.4946C18.0558 63.1851 17.7687 64.1763 17.7618 65.4683V66.5552C17.7618 67.8472 18.0318 68.8486 18.5719 69.5596C19.1187 70.2637 19.9083 70.6157 20.9405 70.6157C21.8634 70.6157 22.5641 70.4277 23.0426 70.0518C23.5279 69.6689 23.839 69.0298 23.9757 68.1343H25.8727ZM38.3947 69.1392H33.0627L31.9348 72H29.9968L34.9084 60.0542H36.6105L41.4504 72H39.5227L38.3947 69.1392ZM33.6779 67.5908H37.7897L35.7492 62.3716L33.6779 67.5908ZM46.241 72V60.0542H49.9427C51.0501 60.0542 52.0311 60.2832 52.8855 60.7412C53.7469 61.1924 54.4168 61.8384 54.8953 62.6792C55.3738 63.52 55.6233 64.4839 55.6438 65.5708V66.3604C55.6438 68.083 55.1106 69.4536 54.0442 70.4722C52.9847 71.4907 51.556 72 49.7581 72H46.241ZM48.138 61.623V70.4517H49.8196C51.0911 70.4517 52.0652 70.0962 52.742 69.3853C53.4188 68.6743 53.7571 67.6626 53.7571 66.3501V65.6938C53.7571 64.3813 53.4324 63.3765 52.783 62.6792C52.1404 61.9751 51.1937 61.623 49.9427 61.623H48.138ZM68.5556 66.6064H63.1005V70.4517H69.4477V72H61.2035V60.0542H69.3861V61.623H63.1005V65.0479H68.5556V66.6064ZM77.0479 60.0542L81.0571 69.3955L85.0459 60.0542H87.5171V72H85.6304V67.8882L85.8252 62.4229L81.7441 72H80.3496L76.2788 62.4639L76.4736 67.8882V72H74.5869V60.0542H77.0479ZM95.548 72H93.6407V60.0542H95.548V72ZM111.238 68.1343C111.102 69.4126 110.603 70.4038 109.741 71.1079C108.88 71.812 107.735 72.1641 106.306 72.1641C104.775 72.1641 103.545 71.6616 102.615 70.6567C101.692 69.645 101.231 68.2539 101.231 66.4834V65.5195C101.231 64.3984 101.439 63.4141 101.856 62.5664C102.28 61.7119 102.885 61.0522 103.671 60.5874C104.464 60.1226 105.38 59.8901 106.419 59.8901C107.814 59.8901 108.931 60.2524 109.772 60.9771C110.62 61.6948 111.109 62.6929 111.238 63.9712H109.342C109.218 63.0825 108.914 62.4399 108.429 62.0435C107.95 61.647 107.28 61.4487 106.419 61.4487C105.373 61.4487 104.563 61.7974 103.989 62.4946C103.422 63.1851 103.134 64.1763 103.128 65.4683V66.5552C103.128 67.8472 103.398 68.8486 103.938 69.5596C104.485 70.2637 105.274 70.6157 106.306 70.6157C107.229 70.6157 107.93 70.4277 108.408 70.0518C108.894 69.6689 109.205 69.0298 109.342 68.1343H111.238ZM129.7 67.396H126.839V72H124.942V60.0542H129.31C130.766 60.0542 131.887 60.3721 132.673 61.0078C133.466 61.6436 133.863 62.5425 133.863 63.7046C133.863 65.2632 133.059 66.3467 131.453 66.9551L134.406 71.8975V72H132.376L129.7 67.396ZM126.839 65.8477H129.361C130.161 65.8477 130.793 65.6631 131.258 65.2939C131.73 64.918 131.966 64.4121 131.966 63.7764C131.966 63.0928 131.737 62.563 131.279 62.187C130.821 61.811 130.161 61.623 129.3 61.623H126.839V65.8477ZM146.703 66.6064H141.248V70.4517H147.595V72H139.351V60.0542H147.533V61.623H141.248V65.0479H146.703V66.6064ZM159.553 68.9443C159.553 68.3975 159.344 67.9736 158.927 67.6729C158.517 67.3721 157.81 67.0952 156.805 66.8423C155.8 66.5894 155.004 66.3159 154.416 66.022C153.083 65.3521 152.416 64.4053 152.416 63.1816C152.416 62.2041 152.83 61.4111 153.657 60.8027C154.491 60.1943 155.561 59.8901 156.866 59.8901C158.206 59.8901 159.3 60.2319 160.148 60.9155C161.002 61.5991 161.429 62.4741 161.429 63.5405H159.532C159.532 62.8706 159.29 62.3545 158.804 61.9922C158.326 61.623 157.673 61.4385 156.846 61.4385C156.073 61.4385 155.458 61.5923 155 61.8999C154.542 62.2007 154.313 62.6245 154.313 63.1714C154.313 63.6157 154.522 63.9883 154.939 64.2891C155.362 64.5898 156.108 64.877 157.174 65.1504C158.24 65.4238 159.074 65.7349 159.676 66.0835C160.277 66.4253 160.725 66.8286 161.019 67.2935C161.313 67.7583 161.46 68.3018 161.46 68.9238C161.46 69.9287 161.043 70.7217 160.209 71.3027C159.382 71.877 158.288 72.1641 156.928 72.1641C155.513 72.1641 154.337 71.8188 153.4 71.1284C152.471 70.4312 152.006 69.5288 152.006 68.4214H153.913C153.913 69.1187 154.176 69.6621 154.703 70.0518C155.229 70.4414 155.971 70.6362 156.928 70.6362C157.789 70.6362 158.442 70.4824 158.886 70.1748C159.331 69.8604 159.553 69.4502 159.553 68.9443ZM174.064 66.6064H168.609V70.4517H174.956V72H166.712V60.0542H174.895V61.623H168.609V65.0479H174.064V66.6064ZM187.273 69.1392H181.941L180.813 72H178.875L183.787 60.0542H185.489L190.329 72H188.401L187.273 69.1392ZM182.556 67.5908H186.668L184.628 62.3716L182.556 67.5908ZM199.877 67.396H197.017V72H195.12V60.0542H199.488C200.944 60.0542 202.065 60.3721 202.851 61.0078C203.644 61.6436 204.04 62.5425 204.04 63.7046C204.04 65.2632 203.237 66.3467 201.631 66.9551L204.584 71.8975V72H202.554L199.877 67.396ZM197.017 65.8477H199.539C200.339 65.8477 200.971 65.6631 201.436 65.2939C201.908 64.918 202.143 64.4121 202.143 63.7764C202.143 63.0928 201.914 62.563 201.456 62.187C200.998 61.811 200.339 61.623 199.477 61.623H197.017V65.8477ZM219.105 68.1343C218.969 69.4126 218.47 70.4038 217.608 71.1079C216.747 71.812 215.602 72.1641 214.173 72.1641C212.642 72.1641 211.412 71.6616 210.482 70.6567C209.559 69.645 209.098 68.2539 209.098 66.4834V65.5195C209.098 64.3984 209.306 63.4141 209.723 62.5664C210.147 61.7119 210.752 61.0522 211.538 60.5874C212.331 60.1226 213.247 59.8901 214.286 59.8901C215.681 59.8901 216.798 60.2524 217.639 60.9771C218.487 61.6948 218.976 62.6929 219.105 63.9712H217.208C217.085 63.0825 216.781 62.4399 216.296 62.0435C215.817 61.647 215.147 61.4487 214.286 61.4487C213.24 61.4487 212.43 61.7974 211.856 62.4946C211.289 63.1851 211.001 64.1763 210.995 65.4683V66.5552C210.995 67.8472 211.265 68.8486 211.805 69.5596C212.352 70.2637 213.141 70.6157 214.173 70.6157C215.096 70.6157 215.797 70.4277 216.275 70.0518C216.761 69.6689 217.072 69.0298 217.208 68.1343H219.105ZM234.437 72H232.54V66.8936H226.347V72H224.45V60.0542H226.347V65.335H232.54V60.0542H234.437V72ZM247.79 66.6064H242.335V70.4517H248.682V72H240.438V60.0542H248.62V61.623H242.335V65.0479H247.79V66.6064ZM258.579 67.396H255.718V72H253.821V60.0542H258.189C259.645 60.0542 260.766 60.3721 261.553 61.0078C262.346 61.6436 262.742 62.5425 262.742 63.7046C262.742 65.2632 261.939 66.3467 260.332 66.9551L263.285 71.8975V72H261.255L258.579 67.396ZM255.718 65.8477H258.241C259.04 65.8477 259.673 65.6631 260.137 65.2939C260.609 64.918 260.845 64.4121 260.845 63.7764C260.845 63.0928 260.616 62.563 260.158 62.187C259.7 61.811 259.04 61.623 258.179 61.623H255.718V65.8477ZM275.049 68.9443C275.049 68.3975 274.84 67.9736 274.423 67.6729C274.013 67.3721 273.306 67.0952 272.301 66.8423C271.296 66.5894 270.499 66.3159 269.912 66.022C268.579 65.3521 267.912 64.4053 267.912 63.1816C267.912 62.2041 268.326 61.4111 269.153 60.8027C269.987 60.1943 271.057 59.8901 272.362 59.8901C273.702 59.8901 274.796 60.2319 275.643 60.9155C276.498 61.5991 276.925 62.4741 276.925 63.5405H275.028C275.028 62.8706 274.786 62.3545 274.3 61.9922C273.822 61.623 273.169 61.4385 272.342 61.4385C271.569 61.4385 270.954 61.5923 270.496 61.8999C270.038 62.2007 269.809 62.6245 269.809 63.1714C269.809 63.6157 270.017 63.9883 270.434 64.2891C270.858 64.5898 271.603 64.877 272.67 65.1504C273.736 65.4238 274.57 65.7349 275.172 66.0835C275.773 66.4253 276.221 66.8286 276.515 67.2935C276.809 67.7583 276.956 68.3018 276.956 68.9238C276.956 69.9287 276.539 70.7217 275.705 71.3027C274.878 71.877 273.784 72.1641 272.424 72.1641C271.009 72.1641 269.833 71.8188 268.896 71.1284C267.967 70.4312 267.502 69.5288 267.502 68.4214H269.409C269.409 69.1187 269.672 69.6621 270.199 70.0518C270.725 70.4414 271.467 70.6362 272.424 70.6362C273.285 70.6362 273.938 70.4824 274.382 70.1748C274.827 69.8604 275.049 69.4502 275.049 68.9443Z" fill="white"/>
<path d="M405.415 72V60.0542H409.117C410.224 60.0542 411.205 60.2832 412.06 60.7412C412.921 61.1924 413.591 61.8384 414.069 62.6792C414.548 63.52 414.797 64.4839 414.818 65.5708V66.3604C414.818 68.083 414.285 69.4536 413.218 70.4722C412.159 71.4907 410.73 72 408.932 72H405.415ZM407.312 61.623V70.4517H408.994C410.265 70.4517 411.239 70.0962 411.916 69.3853C412.593 68.6743 412.931 67.6626 412.931 66.3501V65.6938C412.931 64.3813 412.606 63.3765 411.957 62.6792C411.314 61.9751 410.368 61.623 409.117 61.623H407.312ZM427.73 66.6064H422.275V70.4517H428.622V72H420.378V60.0542H428.56V61.623H422.275V65.0479H427.73V66.6064ZM440.58 68.9443C440.58 68.3975 440.371 67.9736 439.954 67.6729C439.544 67.3721 438.837 67.0952 437.832 66.8423C436.827 66.5894 436.03 66.3159 435.443 66.022C434.11 65.3521 433.443 64.4053 433.443 63.1816C433.443 62.2041 433.857 61.4111 434.684 60.8027C435.518 60.1943 436.588 59.8901 437.893 59.8901C439.233 59.8901 440.327 60.2319 441.175 60.9155C442.029 61.5991 442.456 62.4741 442.456 63.5405H440.559C440.559 62.8706 440.317 62.3545 439.831 61.9922C439.353 61.623 438.7 61.4385 437.873 61.4385C437.1 61.4385 436.485 61.5923 436.027 61.8999C435.569 62.2007 435.34 62.6245 435.34 63.1714C435.34 63.6157 435.549 63.9883 435.966 64.2891C436.389 64.5898 437.134 64.877 438.201 65.1504C439.267 65.4238 440.101 65.7349 440.703 66.0835C441.304 66.4253 441.752 66.8286 442.046 67.2935C442.34 67.7583 442.487 68.3018 442.487 68.9238C442.487 69.9287 442.07 70.7217 441.236 71.3027C440.409 71.877 439.315 72.1641 437.955 72.1641C436.54 72.1641 435.364 71.8188 434.427 71.1284C433.498 70.4312 433.033 69.5288 433.033 68.4214H434.94C434.94 69.1187 435.203 69.6621 435.73 70.0518C436.256 70.4414 436.998 70.6362 437.955 70.6362C438.816 70.6362 439.469 70.4824 439.913 70.1748C440.358 69.8604 440.58 69.4502 440.58 68.9443ZM449.78 72H447.872V60.0542H449.78V72ZM465.521 70.4619C465.07 71.0293 464.445 71.4565 463.645 71.7437C462.852 72.0239 461.939 72.1641 460.907 72.1641C459.28 72.1641 457.975 71.6548 456.99 70.6362C456.006 69.6177 455.507 68.2471 455.493 66.5244V65.6016C455.493 63.8105 455.948 62.4126 456.857 61.4077C457.773 60.396 459.058 59.8901 460.712 59.8901C462.079 59.8901 463.177 60.2114 464.004 60.854C464.831 61.4966 465.337 62.4365 465.521 63.6738H463.635C463.375 62.1904 462.408 61.4487 460.733 61.4487C459.646 61.4487 458.819 61.8008 458.251 62.5049C457.684 63.209 457.4 64.2412 457.4 65.6016V66.4629C457.4 67.7617 457.715 68.7803 458.344 69.5186C458.979 70.25 459.844 70.6157 460.938 70.6157C462.182 70.6157 463.081 70.3628 463.635 69.8569V67.4165H460.753V65.9399H465.521V70.4619ZM481.294 72H479.407L473.204 63.0176V72H471.307V60.0542H473.204L479.407 69.0469V60.0542H481.294V72ZM494.647 66.6064H489.192V70.4517H495.539V72H487.295V60.0542H495.477V61.623H489.192V65.0479H494.647V66.6064ZM505.436 67.396H502.575V72H500.678V60.0542H505.046C506.502 60.0542 507.623 60.3721 508.409 61.0078C509.202 61.6436 509.599 62.5425 509.599 63.7046C509.599 65.2632 508.796 66.3467 507.189 66.9551L510.142 71.8975V72H508.112L505.436 67.396ZM502.575 65.8477H505.097C505.897 65.8477 506.529 65.6631 506.994 65.2939C507.466 64.918 507.702 64.4121 507.702 63.7764C507.702 63.0928 507.473 62.563 507.015 62.187C506.557 61.811 505.897 61.623 505.036 61.623H502.575V65.8477ZM521.906 68.9443C521.906 68.3975 521.697 67.9736 521.28 67.6729C520.87 67.3721 520.162 67.0952 519.158 66.8423C518.153 66.5894 517.356 66.3159 516.768 66.022C515.435 65.3521 514.769 64.4053 514.769 63.1816C514.769 62.2041 515.182 61.4111 516.01 60.8027C516.844 60.1943 517.913 59.8901 519.219 59.8901C520.559 59.8901 521.653 60.2319 522.5 60.9155C523.355 61.5991 523.782 62.4741 523.782 63.5405H521.885C521.885 62.8706 521.642 62.3545 521.157 61.9922C520.679 61.623 520.026 61.4385 519.199 61.4385C518.426 61.4385 517.811 61.5923 517.353 61.8999C516.895 62.2007 516.666 62.6245 516.666 63.1714C516.666 63.6157 516.874 63.9883 517.291 64.2891C517.715 64.5898 518.46 64.877 519.527 65.1504C520.593 65.4238 521.427 65.7349 522.029 66.0835C522.63 66.4253 523.078 66.8286 523.372 67.2935C523.666 67.7583 523.813 68.3018 523.813 68.9238C523.813 69.9287 523.396 70.7217 522.562 71.3027C521.735 71.877 520.641 72.1641 519.281 72.1641C517.866 72.1641 516.69 71.8188 515.753 71.1284C514.824 70.4312 514.359 69.5288 514.359 68.4214H516.266C516.266 69.1187 516.529 69.6621 517.055 70.0518C517.582 70.4414 518.324 70.6362 519.281 70.6362C520.142 70.6362 520.795 70.4824 521.239 70.1748C521.683 69.8604 521.906 69.4502 521.906 68.9443Z" fill="#FFD3C5"/>
<path d="M670.767 66.6064H665.312V70.4517H671.659V72H663.415V60.0542H671.598V61.623H665.312V65.0479H670.767V66.6064ZM680.9 69.0059L681.156 69.9697L681.423 69.0264L684.704 60.0542H686.734L682.048 72H680.275L675.588 60.0542H677.629L680.9 69.0059ZM698.867 66.6064H693.412V70.4517H699.759V72H691.515V60.0542H699.697V61.623H693.412V65.0479H698.867V66.6064ZM709.656 67.396H706.795V72H704.898V60.0542H709.266C710.722 60.0542 711.844 60.3721 712.63 61.0078C713.423 61.6436 713.819 62.5425 713.819 63.7046C713.819 65.2632 713.016 66.3467 711.409 66.9551L714.363 71.8975V72H712.332L709.656 67.396ZM706.795 65.8477H709.318C710.117 65.8477 710.75 65.6631 711.215 65.2939C711.686 64.918 711.922 64.4121 711.922 63.7764C711.922 63.0928 711.693 62.563 711.235 62.187C710.777 61.811 710.117 61.623 709.256 61.623H706.795V65.8477ZM723.162 65.9912L726.362 60.0542H728.495L724.085 67.8267V72H722.188V67.7139L717.841 60.0542H719.974L723.162 65.9912ZM733.224 72V60.0542H737.387C738.815 60.0542 739.909 60.3345 740.668 60.895C741.427 61.4487 741.806 62.2554 741.806 63.3149C741.806 63.8687 741.642 64.3608 741.314 64.7915C740.993 65.2222 740.531 65.5503 739.93 65.7759C740.606 65.9399 741.143 66.2783 741.54 66.791C741.936 67.2969 742.134 67.895 742.134 68.5854C742.134 69.6655 741.762 70.5029 741.017 71.0977C740.271 71.6924 739.212 71.9932 737.838 72H733.224ZM735.121 66.5654V70.4517H737.807C738.593 70.4517 739.195 70.2842 739.612 69.9492C740.029 69.6143 740.237 69.1562 740.237 68.5752C740.237 67.2354 739.434 66.5654 737.828 66.5654H735.121ZM735.121 65.1196H737.52C738.258 65.1196 738.839 64.9761 739.263 64.689C739.687 64.395 739.899 63.9644 739.899 63.397C739.899 62.2485 739.116 61.6572 737.551 61.623H735.121V65.1196ZM757.702 66.3809C757.702 68.165 757.23 69.5767 756.287 70.6157C755.343 71.6479 754.079 72.1641 752.493 72.1641C750.927 72.1641 749.663 71.6411 748.699 70.5952C747.742 69.5493 747.263 68.1274 747.263 66.3296V65.6938C747.263 63.9302 747.738 62.522 748.689 61.4692C749.646 60.4165 750.907 59.8901 752.472 59.8901C754.065 59.8901 755.33 60.4097 756.266 61.4487C757.21 62.4878 757.688 63.8789 757.702 65.6221V66.3809ZM755.825 65.6733C755.825 64.3198 755.531 63.2842 754.943 62.5664C754.356 61.8486 753.532 61.4897 752.472 61.4897C751.447 61.4897 750.633 61.8555 750.032 62.5869C749.437 63.3184 749.14 64.3574 749.14 65.7041V66.3809C749.14 67.7139 749.441 68.7495 750.042 69.4878C750.644 70.2192 751.461 70.585 752.493 70.585C753.559 70.585 754.379 70.2261 754.954 69.5083C755.535 68.7837 755.825 67.7412 755.825 66.3809V65.6733ZM763.272 72V60.0542H766.973C768.081 60.0542 769.062 60.2832 769.916 60.7412C770.778 61.1924 771.447 61.8384 771.926 62.6792C772.404 63.52 772.654 64.4839 772.675 65.5708V66.3604C772.675 68.083 772.141 69.4536 771.075 70.4722C770.015 71.4907 768.587 72 766.789 72H763.272ZM765.169 61.623V70.4517H766.85C768.122 70.4517 769.096 70.0962 769.773 69.3853C770.449 68.6743 770.788 67.6626 770.788 66.3501V65.6938C770.788 64.3813 770.463 63.3765 769.814 62.6792C769.171 61.9751 768.224 61.623 766.973 61.623H765.169ZM782.049 65.9912L785.248 60.0542H787.381L782.971 67.8267V72H781.075V67.7139L776.727 60.0542H778.86L782.049 65.9912Z" fill="white"/>
<path d="M407.312 15.5088V20H405.415V8.0542H410.204C411.598 8.0542 412.709 8.396 413.536 9.07959C414.363 9.75635 414.777 10.6689 414.777 11.8174C414.777 12.9795 414.377 13.8853 413.577 14.5347C412.777 15.1841 411.646 15.5088 410.183 15.5088H407.312ZM407.312 13.9502H410.204C411.051 13.9502 411.708 13.769 412.172 13.4067C412.637 13.0444 412.87 12.5215 412.87 11.8379C412.87 11.1816 412.637 10.6519 412.172 10.2485C411.708 9.83838 411.068 9.62988 410.255 9.62305H407.312V13.9502ZM429.996 20H428.099V14.8936H421.905V20H420.008V8.0542H421.905V13.335H428.099V8.0542H429.996V20ZM446.004 14.3809C446.004 16.165 445.532 17.5767 444.589 18.6157C443.646 19.6479 442.381 20.1641 440.795 20.1641C439.23 20.1641 437.965 19.6411 437.001 18.5952C436.044 17.5493 435.566 16.1274 435.566 14.3296V13.6938C435.566 11.9302 436.041 10.522 436.991 9.46924C437.948 8.4165 439.209 7.89014 440.775 7.89014C442.367 7.89014 443.632 8.40967 444.569 9.44873C445.512 10.4878 445.99 11.8789 446.004 13.6221V14.3809ZM444.128 13.6733C444.128 12.3198 443.834 11.2842 443.246 10.5664C442.658 9.84863 441.834 9.48975 440.775 9.48975C439.749 9.48975 438.936 9.85547 438.334 10.5869C437.739 11.3184 437.442 12.3574 437.442 13.7041V14.3809C437.442 15.7139 437.743 16.7495 438.344 17.4878C438.946 18.2192 439.763 18.585 440.795 18.585C441.862 18.585 442.682 18.2261 443.256 17.5083C443.837 16.7837 444.128 15.7412 444.128 14.3809V13.6733ZM460.444 9.62305H456.352V20H454.455V9.62305H450.385V8.0542H460.444V9.62305ZM475.437 14.3809C475.437 16.165 474.965 17.5767 474.022 18.6157C473.079 19.6479 471.814 20.1641 470.228 20.1641C468.662 20.1641 467.398 19.6411 466.434 18.5952C465.477 17.5493 464.998 16.1274 464.998 14.3296V13.6938C464.998 11.9302 465.474 10.522 466.424 9.46924C467.381 8.4165 468.642 7.89014 470.207 7.89014C471.8 7.89014 473.065 8.40967 474.001 9.44873C474.945 10.4878 475.423 11.8789 475.437 13.6221V14.3809ZM473.56 13.6733C473.56 12.3198 473.267 11.2842 472.679 10.5664C472.091 9.84863 471.267 9.48975 470.207 9.48975C469.182 9.48975 468.369 9.85547 467.767 10.5869C467.172 11.3184 466.875 12.3574 466.875 13.7041V14.3809C466.875 15.7139 467.176 16.7495 467.777 17.4878C468.379 18.2192 469.196 18.585 470.228 18.585C471.294 18.585 472.115 18.2261 472.689 17.5083C473.27 16.7837 473.56 15.7412 473.56 14.3809V13.6733ZM487.826 16.9443C487.826 16.3975 487.617 15.9736 487.2 15.6729C486.79 15.3721 486.083 15.0952 485.078 14.8423C484.073 14.5894 483.276 14.3159 482.688 14.022C481.355 13.3521 480.689 12.4053 480.689 11.1816C480.689 10.2041 481.103 9.41113 481.93 8.80273C482.764 8.19434 483.833 7.89014 485.139 7.89014C486.479 7.89014 487.573 8.23193 488.42 8.91553C489.275 9.59912 489.702 10.4741 489.702 11.5405H487.805C487.805 10.8706 487.562 10.3545 487.077 9.99219C486.599 9.62305 485.946 9.43848 485.119 9.43848C484.346 9.43848 483.731 9.59229 483.273 9.8999C482.815 10.2007 482.586 10.6245 482.586 11.1714C482.586 11.6157 482.794 11.9883 483.211 12.2891C483.635 12.5898 484.38 12.877 485.447 13.1504C486.513 13.4238 487.347 13.7349 487.949 14.0835C488.55 14.4253 488.998 14.8286 489.292 15.2935C489.586 15.7583 489.733 16.3018 489.733 16.9238C489.733 17.9287 489.316 18.7217 488.482 19.3027C487.655 19.877 486.561 20.1641 485.201 20.1641C483.786 20.1641 482.61 19.8188 481.673 19.1284C480.744 18.4312 480.279 17.5288 480.279 16.4214H482.186C482.186 17.1187 482.449 17.6621 482.976 18.0518C483.502 18.4414 484.244 18.6362 485.201 18.6362C486.062 18.6362 486.715 18.4824 487.159 18.1748C487.604 17.8604 487.826 17.4502 487.826 16.9443ZM504.972 20H503.075V14.8936H496.882V20H494.985V8.0542H496.882V13.335H503.075V8.0542H504.972V20ZM520.981 14.3809C520.981 16.165 520.509 17.5767 519.566 18.6157C518.622 19.6479 517.358 20.1641 515.772 20.1641C514.206 20.1641 512.942 19.6411 511.978 18.5952C511.021 17.5493 510.542 16.1274 510.542 14.3296V13.6938C510.542 11.9302 511.017 10.522 511.967 9.46924C512.925 8.4165 514.186 7.89014 515.751 7.89014C517.344 7.89014 518.609 8.40967 519.545 9.44873C520.488 10.4878 520.967 11.8789 520.981 13.6221V14.3809ZM519.104 13.6733C519.104 12.3198 518.81 11.2842 518.222 10.5664C517.634 9.84863 516.811 9.48975 515.751 9.48975C514.726 9.48975 513.912 9.85547 513.311 10.5869C512.716 11.3184 512.419 12.3574 512.419 13.7041V14.3809C512.419 15.7139 512.719 16.7495 513.321 17.4878C513.923 18.2192 514.739 18.585 515.772 18.585C516.838 18.585 517.658 18.2261 518.233 17.5083C518.814 16.7837 519.104 15.7412 519.104 14.3809V13.6733ZM528.448 15.5088V20H526.551V8.0542H531.339C532.734 8.0542 533.845 8.396 534.672 9.07959C535.499 9.75635 535.912 10.6689 535.912 11.8174C535.912 12.9795 535.512 13.8853 534.713 14.5347C533.913 15.1841 532.782 15.5088 531.319 15.5088H528.448ZM528.448 13.9502H531.339C532.187 13.9502 532.843 13.769 533.308 13.4067C533.773 13.0444 534.005 12.5215 534.005 11.8379C534.005 11.1816 533.773 10.6519 533.308 10.2485C532.843 9.83838 532.204 9.62988 531.39 9.62305H528.448V13.9502Z" fill="#FFD3C5"/>
<path d="M667.383 14.4321H662.379V12.8838H667.383V14.4321Z" fill="white"/>
</svg>
