<svg width="680" height="88" viewBox="0 0 680 88" fill="none" xmlns="http://www.w3.org/2000/svg">
<g clip-path="url(#clip0)">
<path d="M23.6027 0.279663C45.5728 0.279663 56.5345 11.8856 56.5345 35.1441C56.5345 47.0297 54.0623 55.7924 49.1645 61.5254C44.2667 67.2585 36.7101 70.1017 26.4947 70.1017H0C0.792976 69.7754 1.44601 68.9364 1.91247 67.5847C2.37893 66.233 2.61216 63.8559 2.61216 60.5V9.78814C2.61216 6.4322 2.37893 4.05509 1.91247 2.70339C1.44601 1.3517 0.792976 0.559324 0 0.279663H23.6027ZM41.8878 61.0593C43.6137 58.2161 44.9197 54.6271 45.7127 50.3856C46.5057 46.1441 46.9255 41.0636 46.9255 35.1441C46.9255 23.7712 45.013 15.2415 41.1414 9.50848C37.2232 3.6822 31.3925 0.745765 23.696 0.745765H11.4748V69.5424H26.4014C33.3516 69.5424 38.5293 66.7458 41.8878 61.0593ZM26.4947 13.0508L27.1478 13.7034L26.4947 15.4746L25.8417 13.7034L26.4947 13.0508ZM26.4947 16.9661L27.1478 17.6186L26.4947 19.3898L25.8417 17.6186L26.4947 16.9661Z" fill="white"/>
<path d="M106.632 20.9746C106.119 20.9746 105.652 21.1144 105.139 21.3474C104.626 21.5805 104.113 22.0466 103.6 22.7458C103.087 23.4449 102.527 24.3771 101.967 25.6356C101.408 26.8941 100.801 28.4788 100.195 30.3898L89.4663 62.1779V62.2712L85.9212 72.8051L85.3615 74.2966L85.2682 74.6695C84.3353 77.4661 83.4024 79.7034 82.4695 81.3347C81.5365 82.9661 80.5103 84.3178 79.3908 85.2966C78.318 86.2288 77.0586 86.9279 75.6126 87.3474C74.1665 87.7669 72.3474 88 70.155 88H65.677V87.9068C64.231 87.7203 63.0182 87.0212 61.9454 85.8559C60.7792 84.5508 60.2195 83.0127 60.3594 81.2881C60.4994 79.5635 61.199 78.072 62.5051 76.9068C63.8578 75.7881 65.3972 75.2754 67.123 75.4152C68.8489 75.5551 70.2949 76.2542 71.4611 77.5593C72.6272 78.8644 73.187 80.4025 73.047 82.1271C72.9071 83.8517 72.1608 85.3432 70.808 86.5085C70.6215 86.6949 70.2949 86.9279 69.7818 87.161H70.155C72.2074 87.161 73.9333 86.9745 75.3327 86.5551C76.732 86.1356 77.9448 85.483 79.0177 84.5508C80.0905 83.572 81.0234 82.2669 81.9097 80.6356C82.796 79.0042 83.6356 76.9068 84.5219 74.2966L84.895 73.0847L66.5167 29.178C65.7703 27.5 65.0706 26.1017 64.4642 25.0297C63.8578 23.9576 63.2515 23.1186 62.7384 22.5127C62.2252 21.9068 61.7121 21.5339 61.199 21.3008C60.6859 21.0678 60.2195 20.9746 59.7064 20.9746H59.2399L59.3332 20.8813H76.0324L76.1256 20.9746H76.2189H75.7525C75.0528 20.9746 74.5863 21.2076 74.3531 21.6271C73.7467 22.5127 74.1199 24.7966 75.4726 28.5254L88.9066 60.9661L99.9149 27.5932C100.848 24.4703 100.988 22.5127 100.288 21.6271C99.9149 21.2076 99.4018 20.9746 98.7954 20.9746H98.329L98.5156 20.8813H107.098L107.192 20.9746H106.632ZM87.2273 32.4407L86.481 30.6695L87.2273 30.0169L87.7871 30.6695L87.2273 32.4407Z" fill="white"/>
<path d="M153.557 69.9152V70.0085L153.464 70.1017H137.651L137.465 70.0085V69.9152H138.024C138.584 69.9152 139.051 69.7754 139.424 69.5424C139.797 69.3093 140.17 68.8432 140.497 68.1441C140.823 67.4449 141.01 66.4661 141.196 65.2076C141.336 63.9491 141.43 62.3178 141.43 60.3135V40.3644C141.43 35.6568 141.056 31.8347 140.357 28.9915C139.657 26.1483 138.584 24.0974 137.138 22.839V22.7458C136.812 22.5127 136.392 22.233 135.832 21.9534C135.272 21.6737 134.573 21.4873 133.78 21.3474C132.987 21.2076 132.007 21.2076 130.934 21.3474C129.861 21.4873 128.602 21.8135 127.249 22.3729C126.503 22.6059 125.757 23.0254 125.01 23.5847C124.311 24.0974 123.611 24.7034 122.818 25.4958C122.025 26.2881 121.325 27.2669 120.626 28.4322V28.6186V29.0847V60.4068C120.626 62.411 120.719 63.9958 120.859 65.2542C120.999 66.5127 121.232 67.4915 121.512 68.1907C121.792 68.8898 122.165 69.4025 122.585 69.6356C123.005 69.8686 123.518 70.0085 123.984 70.0085H124.451L124.357 70.1017H108.544H108.451V70.0085H108.918C109.431 70.0085 109.897 69.8686 110.317 69.6356C110.737 69.4025 111.11 68.9364 111.436 68.2373C111.763 67.5381 111.996 66.5593 112.136 65.3008C112.276 64.0424 112.369 62.411 112.369 60.4068V30.0169C112.369 28.0127 112.276 26.428 112.136 25.1695C111.996 23.911 111.763 22.9788 111.436 22.2796C111.11 21.5805 110.737 21.1144 110.317 20.8813C109.897 20.6483 109.431 20.5085 108.918 20.5085H108.451V20.4152V20.322H108.544H120.579V26.661C120.952 26.1483 121.559 25.5424 122.351 24.7966C123.144 24.0508 124.264 23.2585 125.617 22.3729C126.876 21.5805 128.229 21.0678 129.722 20.8347C131.214 20.6017 132.567 20.5551 133.826 20.6017C135.319 20.6483 136.765 20.8347 138.211 21.161C139.657 21.4873 141.01 22 142.269 22.6991C143.529 23.3983 144.601 24.3771 145.488 25.6356C148.147 29.0381 149.499 33.9788 149.499 40.3644V60.3135C149.499 62.3178 149.593 63.9491 149.732 65.2076C149.872 66.4661 150.106 67.4449 150.432 68.1441C150.759 68.8432 151.085 69.3093 151.505 69.5424C151.925 69.7754 152.391 69.9152 152.951 69.9152H153.557ZM131.307 35.1441L131.96 35.7966L131.307 37.4746L130.654 35.7966L131.307 35.1441Z" fill="white"/>
<path d="M204.028 68.6101C203.328 69.2161 202.395 69.7754 201.136 70.2881C200.063 70.7076 198.71 70.9407 197.031 70.9407C194.046 70.9407 191.853 70.2881 190.501 68.983C189.335 67.911 188.495 66.5127 188.075 64.7881C187.702 63.8559 187.515 62.6907 187.515 61.339V56.6779C186.722 60.9661 184.95 64.322 182.291 66.7457C179.632 69.1695 176.414 70.3813 172.682 70.3813C169.883 70.3813 167.411 70.1483 165.312 69.7288C163.213 69.3093 161.441 68.6101 160.088 67.6779C157.616 66.1398 156.356 63.8093 156.356 60.6864C156.356 58.6356 156.729 56.7712 157.522 55.0466C158.315 53.322 159.388 51.8771 160.834 50.6652C162.28 49.4534 163.959 48.5212 165.965 47.822C167.971 47.1229 170.163 46.7966 172.589 46.7966C177.813 46.7966 181.591 45.7246 183.97 43.5805C186.349 41.4364 187.515 37.9873 187.515 33.2796C187.515 28.8051 186.582 25.4491 184.717 23.2118C183.037 21.2076 180.612 20.2288 177.44 20.2288C174.641 20.2288 171.982 20.8813 169.51 22.233C167.038 23.5847 164.892 25.4025 163.166 27.7796C164.426 27.0805 165.732 26.894 167.178 27.1737C168.624 27.4534 169.837 28.1525 170.816 29.2712C171.982 30.5763 172.542 32.1144 172.402 33.8856C172.262 35.6568 171.563 37.1483 170.257 38.3135C168.904 39.4322 167.365 39.9449 165.639 39.8051C163.913 39.6652 162.467 38.9661 161.301 37.661C160.508 36.7288 159.994 35.6568 159.808 34.4449C159.621 33.233 159.761 32.1144 160.181 31.0424C161.627 27.0805 163.866 24.144 166.898 22.2796C169.93 20.4152 173.475 19.483 177.44 19.483C189.614 19.483 195.725 25.3093 195.725 36.9152V49.5932V64.5084C195.725 66.3262 196.005 67.5381 196.565 68.144C197.124 68.75 197.917 69.0762 198.99 69.0762C199.737 69.0762 200.436 68.9364 201.136 68.7034C201.929 68.3771 202.675 68.0042 203.282 67.5847L204.028 68.6101ZM187.515 38.0339L187.142 39.0593C186.396 41.9957 184.903 44.0932 182.711 45.3983C180.519 46.7034 177.393 47.3559 173.335 47.3559C170.723 47.3559 168.624 48.5678 166.991 50.9449C165.359 53.322 164.566 56.4915 164.566 60.4068C164.566 63.4364 165.219 65.7669 166.525 67.3051C167.971 69.0296 170.117 69.9152 173.055 69.9152C177.113 69.9152 180.425 68.4703 182.991 65.5339C185.556 62.5974 187.096 58.6822 187.515 53.6949V38.0339ZM178.28 29.0847L177.627 30.8559L176.973 29.0847L177.627 28.4322L178.28 29.0847Z" fill="white"/>
<path d="M278.101 69.9152V70.0085L278.008 70.1017H262.242L262.055 69.9152H262.615C263.175 69.9152 263.641 69.7754 264.014 69.5424C264.387 69.3093 264.761 68.8432 265.04 68.1441C265.367 67.4449 265.554 66.4661 265.74 65.2076C265.88 63.9491 265.973 62.3178 265.973 60.3135V40.3644C265.973 35.6568 265.6 31.8347 264.9 28.9449C264.201 26.0551 263.175 24.0042 261.775 22.7458C261.076 22.1864 260.003 21.7203 258.417 21.3474C256.877 20.9746 254.685 21.3008 251.84 22.2796C251.047 22.6525 250.254 23.1652 249.414 23.7712C248.714 24.2839 247.968 24.983 247.082 25.8686C246.196 26.7542 245.449 27.8729 244.75 29.178C246.056 32.161 246.709 35.8898 246.709 40.3644V60.3135C246.709 62.3178 246.802 63.9491 246.942 65.2076C247.082 66.4661 247.315 67.4449 247.642 68.1441C247.968 68.8432 248.295 69.3093 248.714 69.5424C249.134 69.7754 249.601 69.9152 250.16 69.9152H250.627V70.0085L250.534 70.1017H234.674L234.581 69.9152H235.141C235.654 69.9152 236.073 69.7754 236.54 69.5424C236.96 69.3093 237.333 68.8432 237.659 68.1441C237.986 67.4449 238.219 66.4661 238.359 65.2076C238.499 63.9491 238.592 62.3178 238.592 60.3135V40.3644C238.592 35.6568 238.219 31.8347 237.52 28.9449C236.82 26.0551 235.747 24.0042 234.301 22.7458C233.974 22.5127 233.555 22.233 232.995 21.9534C232.435 21.6737 231.735 21.4873 230.942 21.3474C230.15 21.2076 229.17 21.2076 228.097 21.3474C227.024 21.4873 225.765 21.7669 224.412 22.2796C223.666 22.6059 222.919 23.0254 222.173 23.5847C221.473 24.0974 220.727 24.7034 219.934 25.4958C219.141 26.2881 218.395 27.2669 217.695 28.4322V28.5254V29.0847V60.4068C217.695 62.411 217.788 63.9958 217.928 65.2542C218.068 66.5127 218.302 67.4449 218.628 68.1441C218.955 68.8432 219.281 69.3093 219.701 69.5424C220.121 69.7754 220.541 69.9152 221.054 69.9152H221.613V70.0085L221.52 70.1017H205.661V70.0085V69.9152H206.034C206.593 69.9152 207.06 69.7754 207.48 69.5424C207.9 69.3093 208.226 68.8432 208.553 68.1441C208.879 67.4449 209.112 66.5127 209.252 65.2542C209.392 63.9958 209.485 62.411 209.485 60.4068V30.0169C209.485 28.0127 209.392 26.428 209.252 25.1695C209.112 23.911 208.879 22.9322 208.553 22.233C208.226 21.5339 207.9 21.0212 207.48 20.7881C207.06 20.5551 206.593 20.4152 206.034 20.4152H205.661V20.322H217.695V26.661C218.115 26.1483 218.721 25.5424 219.514 24.7966C220.307 24.0508 221.38 23.2585 222.826 22.3729C224.086 21.5805 225.438 21.0212 226.884 20.7881C228.33 20.5551 229.683 20.4619 230.942 20.5085C232.435 20.5551 233.928 20.7415 235.42 21.0678C236.866 21.4407 238.173 22 239.432 22.6991C240.691 23.3983 241.764 24.3771 242.697 25.5424C243.304 26.3347 243.863 27.2669 244.376 28.2458L244.283 28.1525V28.0593C244.516 27.5466 244.89 26.9873 245.403 26.3813C245.822 25.8686 246.429 25.3093 247.222 24.6102C248.015 23.911 248.994 23.1652 250.254 22.3729C251.513 21.5805 252.866 21.0212 254.359 20.7881C255.851 20.5551 257.204 20.4619 258.463 20.5085C259.956 20.5551 261.402 20.7415 262.848 21.0678C264.294 21.4407 265.647 22 266.906 22.6991C268.166 23.3983 269.239 24.3771 270.125 25.5424C272.784 28.9449 274.136 33.8856 274.136 40.3644V60.3135C274.136 62.3178 274.23 63.9491 274.37 65.2076C274.509 66.4661 274.743 67.4449 275.069 68.1441C275.396 68.8432 275.722 69.3093 276.142 69.5424C276.562 69.7754 277.028 69.9152 277.588 69.9152H278.101ZM228.424 35.0508L229.077 35.7034L228.424 37.4746L227.771 35.7034L228.424 35.0508ZM256.971 35.0508L257.624 35.7034L256.971 37.4746L256.318 35.7034L256.971 35.0508Z" fill="white"/>
<path d="M297.226 69.9152V70.0084L297.133 70.1016H281.366L281.273 70.0084V69.9152H281.833C282.346 69.9152 282.766 69.7754 283.186 69.5423C283.605 69.3093 283.932 68.8432 284.258 68.144C284.585 67.4449 284.818 66.5126 284.958 65.2542C285.098 63.9957 285.191 62.411 285.191 60.4067V30.0169C285.191 28.0127 285.098 26.4279 284.958 25.1694C284.818 23.911 284.585 22.9322 284.258 22.233C283.932 21.5338 283.605 21.0211 283.186 20.7881C282.766 20.555 282.346 20.4152 281.833 20.4152H281.273L281.366 20.322H293.401V60.4067C293.401 62.411 293.494 63.9957 293.634 65.2542C293.774 66.5126 294.007 67.4449 294.287 68.144C294.567 68.8432 294.94 69.3093 295.36 69.5423C295.78 69.7754 296.246 69.9152 296.759 69.9152H297.226ZM293.214 11.0932C291.908 12.2584 290.369 12.8177 288.643 12.6779C286.917 12.5381 285.471 11.7923 284.352 10.4406C283.186 9.13554 282.626 7.59741 282.766 5.87283C282.906 4.14826 283.652 2.70334 285.005 1.5847C286.311 0.419442 287.85 -0.13988 289.576 -4.94253e-05C291.302 0.139781 292.748 0.838934 293.867 2.14402C295.034 3.49571 295.593 5.03385 295.453 6.75842C295.313 8.483 294.567 9.92792 293.214 11.0932Z" fill="white"/>
<path d="M326.053 70.1017C329.085 70.1017 331.93 69.1695 334.496 67.3051C337.061 65.4407 339.16 62.7839 340.7 59.3813L341.539 59.8474L341.259 60.2203C339.627 63.5763 337.481 66.1864 334.822 68.0508C332.164 69.9152 329.225 70.8474 326.053 70.8474C318.077 70.8474 312.013 68.7034 307.768 64.3686C303.523 60.0339 301.424 53.8347 301.424 45.678C301.424 37.5212 303.43 31.2754 307.441 26.8941C311.453 22.5127 317.424 20.322 325.4 20.322C326.893 20.322 328.385 20.4619 329.878 20.7415C331.371 21.0212 332.817 21.5805 334.263 22.3729C335.709 23.1652 337.061 24.3305 338.414 25.7754C339.767 27.2203 341.026 29.1313 342.192 31.4152C342.239 31.5551 342.286 31.6483 342.332 31.7415C342.379 31.8347 342.426 31.928 342.472 32.0678V32.161C342.985 33.4195 343.079 34.678 342.799 35.983C342.519 37.2881 341.866 38.4068 340.793 39.339C339.487 40.4576 337.948 40.9703 336.222 40.8305C334.496 40.6907 333.05 39.9915 331.93 38.6864C330.764 37.3813 330.204 35.8432 330.344 34.1186C330.484 32.3941 331.184 30.9491 332.49 29.8305C333.47 28.9449 334.589 28.4322 335.849 28.2924C337.108 28.1525 338.274 28.339 339.394 28.8983C337.295 25.9152 335.102 23.911 332.863 22.839C330.624 21.7669 328.339 21.2542 326.053 21.2542C321.015 21.2542 317.144 23.3517 314.485 27.5C311.826 31.6483 310.473 37.7076 310.473 45.678C310.473 53.6483 311.826 59.7076 314.485 63.8559C317.144 68.0508 321.015 70.1017 326.053 70.1017ZM322.694 29.5508L323.348 28.8983L324.001 29.5508L323.348 31.322L322.694 29.5508Z" fill="white"/>
<path d="M441.921 60.5933C441.921 63.9492 442.154 66.2797 442.62 67.6314C443.087 68.9831 443.74 69.7755 444.533 70.1017H430.912C431.705 69.7755 432.358 68.9831 432.778 67.6314C433.198 66.2797 433.431 63.9492 433.431 60.5933V2.05089L410.202 70.0085L410.108 70.1017H402.365L379.322 7.73733V60.5933C379.322 63.9492 379.555 66.2797 379.975 67.6314C380.395 68.9831 381.048 69.7755 381.841 70.1017H375.964C376.757 69.7755 377.41 68.9831 377.83 67.6314C378.249 66.2797 378.483 63.9492 378.483 60.5933V9.69496C378.483 8.76275 378.483 7.92377 378.483 7.1314C378.483 6.33902 378.436 5.63987 378.296 5.03394L376.617 0.559363L376.524 0.466143C376.384 0.419533 376.29 0.326313 376.197 0.279702C376.104 0.233092 376.01 0.139872 375.87 0.0932617H384.64L409.549 68.4238L409.829 69.2628L433.431 0.0932617H434.084H444.533C443.74 0.419533 443.087 1.21191 442.62 2.5636C442.154 3.9153 441.921 6.29241 441.921 9.69496V60.5933ZM408.243 15.5678L407.59 13.7967L408.243 13.1441L408.896 13.7967L408.243 15.5678ZM408.243 19.3899L407.59 17.6187L408.243 16.9661L408.896 17.6187L408.243 19.3899Z" fill="white"/>
<path d="M472.52 69.9152C475.552 69.9152 478.398 68.983 480.963 67.1186C483.529 65.2542 485.628 62.5974 487.167 59.1949L488.007 59.661L487.727 60.1271C486.094 63.483 483.948 66.0932 481.29 67.911C478.631 69.7288 475.692 70.661 472.52 70.661C465.383 70.661 459.739 68.9364 455.588 65.4407C451.436 61.9449 448.964 56.911 448.171 50.2458C448.171 50.0127 448.171 49.7796 448.124 49.5466C448.078 49.3135 448.078 49.0805 448.078 48.7542C448.078 48.6144 448.078 48.5212 448.031 48.4746C447.985 48.428 447.985 48.3347 447.985 48.1949C447.985 47.6822 447.985 47.2161 447.938 46.7034C447.891 46.1907 447.891 45.7246 447.891 45.2119C447.891 37.0551 449.71 30.8559 453.349 26.5212C456.987 22.1864 462.211 20.0424 469.022 20.0424C476.298 20.0424 481.663 22.4195 485.208 27.2203C488.38 31.5085 490.012 37.8008 490.152 46.0508H456.941V46.1441V48.1949C457.267 55.2797 458.713 60.6864 461.372 64.3686C464.031 68.0975 467.716 69.9152 472.52 69.9152ZM456.941 45.4915H481.943V45.3051C481.943 37.661 480.963 31.7415 478.957 27.5932C476.672 23.072 473.36 20.7881 469.068 20.7881C465.29 20.7881 462.305 22.7924 460.206 26.7542C458.013 30.9025 456.941 37.0551 456.941 45.2119V45.4915ZM469.768 28.7119L470.421 29.3644L469.768 31.1356L469.115 29.3644L469.768 28.7119Z" fill="white"/>
<path d="M541.462 69.822L541.369 70.0085V70.1017H529.148V54.161C528.168 59.5212 526.303 63.6695 523.644 66.6059C520.985 69.5424 517.673 71.0339 513.755 71.0339C510.91 71.0339 508.297 70.428 505.918 69.2161C503.54 68.0042 501.534 66.2797 499.855 64.089C498.175 61.8983 496.869 59.2415 495.936 56.1653C495.003 53.089 494.537 49.6398 494.537 45.8644C494.537 42.089 495.003 38.6398 495.936 35.5169C496.869 32.3941 498.175 29.7373 499.855 27.5466C501.534 25.3559 503.54 23.6314 505.918 22.4195C508.297 21.2076 510.91 20.6017 513.755 20.6017C517.673 20.6017 520.985 22.0932 523.644 25.0763C526.303 28.0593 528.168 32.2076 529.148 37.5678V9.78814C529.148 7.87712 529.055 6.29237 528.915 5.0339C528.775 3.77542 528.542 2.79661 528.262 2.09746C527.982 1.39831 527.655 0.885593 527.236 0.652542C526.816 0.419492 526.396 0.279661 525.883 0.279661H525.23L525.323 0.186441L525.416 0H537.544V60.4068C537.544 62.411 537.638 63.9958 537.777 65.2076C537.917 66.4195 538.151 67.3517 538.43 68.0508C538.71 68.75 539.084 69.2161 539.503 69.4492C539.923 69.6822 540.39 69.822 540.903 69.822H541.462ZM514.221 70.1949C516.507 70.1949 518.606 69.589 520.425 68.4237C522.244 67.2585 523.83 65.5805 525.136 63.4831C526.443 61.3856 527.422 58.822 528.122 55.839C528.821 52.8559 529.148 49.5466 529.148 45.8644C529.148 42.1822 528.821 38.8729 528.122 35.8898C527.422 32.9068 526.443 30.3432 525.136 28.1992C523.83 26.0551 522.244 24.4237 520.425 23.2585C518.606 22.0932 516.507 21.5339 514.221 21.5339C511.003 21.5339 508.437 23.7712 506.572 28.2458C504.659 32.7669 503.68 38.6398 503.68 45.8644C503.68 53.089 504.659 58.9619 506.572 63.4831C508.484 67.9576 511.05 70.1949 514.221 70.1949ZM514.874 29.2712L515.527 29.9237L514.874 31.6949L514.221 29.9237L514.874 29.2712Z" fill="white"/>
<path d="M559.747 69.9152V70.0084L559.654 70.1016H543.888L543.795 70.0084V69.9152H544.354C544.868 69.9152 545.287 69.7754 545.707 69.5423C546.127 69.3093 546.453 68.8432 546.78 68.144C547.107 67.4449 547.34 66.5126 547.48 65.2542C547.62 63.9957 547.713 62.411 547.713 60.4067V30.0169C547.713 28.0127 547.62 26.4279 547.48 25.1694C547.34 23.911 547.107 22.9322 546.78 22.233C546.453 21.5338 546.127 21.0211 545.707 20.7881C545.287 20.555 544.868 20.4152 544.354 20.4152H543.795L543.888 20.322H555.923V60.4067C555.923 62.411 556.016 63.9957 556.156 65.2542C556.296 66.5126 556.529 67.4449 556.809 68.144C557.089 68.8432 557.462 69.3093 557.882 69.5423C558.301 69.7754 558.768 69.9152 559.281 69.9152H559.747ZM555.736 11.0932C554.43 12.2584 552.891 12.8177 551.165 12.6779C549.439 12.5381 547.993 11.7923 546.873 10.4406C545.707 9.13554 545.147 7.59741 545.287 5.87283C545.427 4.14826 546.174 2.70334 547.526 1.5847C548.832 0.419442 550.372 -0.13988 552.098 -4.94253e-05C553.824 0.139781 555.27 0.838934 556.389 2.14402C557.555 3.49571 558.115 5.03385 557.975 6.75842C557.835 8.483 557.089 9.92792 555.736 11.0932Z" fill="white"/>
<path d="M604.994 69.9152V70.0084L604.901 70.1016H592.866L592.959 64.8813C592.026 65.8135 590.674 66.8855 588.948 68.0508C587.688 68.8432 586.336 69.3559 584.843 69.5889C583.35 69.822 581.998 69.8686 580.738 69.822C579.245 69.7754 577.753 69.5889 576.353 69.2627C574.907 68.9364 573.555 68.4237 572.295 67.6779C571.036 66.9321 569.916 65.9533 568.983 64.7881C567.631 62.9237 566.558 60.6398 565.905 57.8898H565.812C565.672 56.911 565.578 55.8855 565.485 54.8135C565.392 53.7415 565.345 52.6228 565.345 51.4576V29.9237C565.345 27.9194 565.252 26.3347 565.112 25.0762C564.972 23.8177 564.739 22.8855 564.412 22.1864C564.086 21.4872 563.759 21.0211 563.339 20.7881C562.919 20.555 562.453 20.4152 561.893 20.4152H561.427H561.52V20.322V20.2288H573.555V51.4576C573.555 55.1864 573.741 58.4025 574.114 61.0593H574.208C574.814 64.0423 575.887 66.233 577.38 67.5847C577.706 67.911 578.126 68.1906 578.686 68.4237C579.245 68.6567 579.945 68.8432 580.738 68.983C581.531 69.1228 582.511 69.1228 583.583 68.983C584.656 68.8432 585.916 68.5635 587.362 68.0508C587.922 67.8643 588.528 67.5381 589.134 67.1186C589.647 66.7923 590.207 66.3262 590.907 65.7203C591.607 65.1143 592.26 64.3686 592.959 63.483V57.4237V56.3983V30.0169C592.959 28.0127 592.866 26.4279 592.726 25.1694C592.586 23.911 592.353 22.9321 592.026 22.233C591.7 21.5338 591.373 21.0211 590.907 20.7881C590.487 20.555 590.021 20.4152 589.508 20.4152H588.948L589.041 20.322H601.122V60.4067C601.122 62.411 601.216 63.9957 601.355 65.2542C601.495 66.5127 601.729 67.4449 602.055 68.144C602.382 68.8432 602.708 69.3093 603.128 69.5423C603.548 69.7754 604.014 69.9152 604.574 69.9152H604.994ZM582.744 31.7881L581.998 30.0169L582.744 29.4576L583.304 30.0169L582.744 31.7881Z" fill="white"/>
<path d="M680 69.9152V70.0085L679.907 70.1017H664.14L663.954 69.9152H664.514C665.073 69.9152 665.54 69.7754 665.913 69.5424C666.286 69.3093 666.659 68.8432 666.939 68.1441C667.266 67.4449 667.452 66.4661 667.639 65.2076C667.779 63.9491 667.872 62.3178 667.872 60.3135V40.3644C667.872 35.6568 667.499 31.8347 666.799 28.9449C666.1 26.0551 665.073 24.0042 663.674 22.7458C662.974 22.1864 661.901 21.7203 660.315 21.3474C658.776 20.9746 656.584 21.3008 653.738 22.2796C652.945 22.6525 652.153 23.1652 651.313 23.7712C650.613 24.2839 649.867 24.983 648.981 25.8686C648.094 26.7542 647.348 27.8729 646.648 29.178C647.954 32.161 648.607 35.8898 648.607 40.3644V60.3135C648.607 62.3178 648.701 63.9491 648.841 65.2076C648.981 66.4661 649.214 67.4449 649.54 68.1441C649.867 68.8432 650.193 69.3093 650.613 69.5424C651.033 69.7754 651.499 69.9152 652.059 69.9152H652.526V70.0085L652.432 70.1017H636.573L636.48 69.9152H637.039C637.552 69.9152 637.972 69.7754 638.439 69.5424C638.858 69.3093 639.232 68.8432 639.558 68.1441C639.885 67.4449 640.118 66.4661 640.258 65.2076C640.398 63.9491 640.491 62.3178 640.491 60.3135V40.3644C640.491 35.6568 640.118 31.8347 639.418 28.9449C638.719 26.0551 637.646 24.0042 636.2 22.7458C635.873 22.5127 635.453 22.233 634.894 21.9534C634.334 21.6737 633.634 21.4873 632.841 21.3474C632.048 21.2076 631.069 21.2076 629.996 21.3474C628.923 21.4873 627.664 21.7669 626.311 22.2796C625.564 22.6059 624.818 23.0254 624.072 23.5847C623.372 24.0974 622.626 24.7034 621.833 25.4958C621.04 26.2881 620.294 27.2669 619.594 28.4322V28.5254V29.0847V60.4068C619.594 62.411 619.687 63.9958 619.827 65.2542C619.967 66.5127 620.2 67.4449 620.527 68.1441C620.853 68.8432 621.18 69.3093 621.6 69.5424C622.019 69.7754 622.439 69.9152 622.952 69.9152H623.512V70.0085L623.419 70.1017H607.559V70.0085V69.9152H607.932C608.492 69.9152 608.959 69.7754 609.378 69.5424C609.798 69.3093 610.125 68.8432 610.451 68.1441C610.778 67.4449 611.011 66.5127 611.151 65.2542C611.291 63.9958 611.384 62.411 611.384 60.4068V30.0169C611.384 28.0127 611.291 26.428 611.151 25.1695C611.011 23.911 610.778 22.9322 610.451 22.233C610.125 21.5339 609.798 21.0212 609.378 20.7881C608.959 20.5551 608.492 20.4152 607.932 20.4152H607.559V20.322H619.594V26.661C620.014 26.1483 620.62 25.5424 621.413 24.7966C622.206 24.0508 623.279 23.2585 624.725 22.3729C625.984 21.5805 627.337 21.0212 628.783 20.7881C630.229 20.5551 631.582 20.4619 632.841 20.5085C634.334 20.5551 635.827 20.7415 637.319 21.0678C638.765 21.4407 640.071 22 641.331 22.6991C642.59 23.3983 643.663 24.3771 644.596 25.5424C645.202 26.3347 645.762 27.2669 646.275 28.2458L646.182 28.1525V28.0593C646.415 27.5466 646.788 26.9873 647.301 26.3813C647.721 25.8686 648.328 25.3093 649.121 24.6102C649.914 23.911 650.893 23.1652 652.153 22.3729C653.412 21.5805 654.765 21.0212 656.257 20.7881C657.75 20.5551 659.103 20.4619 660.362 20.5085C661.855 20.5551 663.301 20.7415 664.747 21.0678C666.193 21.4407 667.546 22 668.805 22.6991C670.064 23.3983 671.137 24.3771 672.024 25.5424C674.682 28.9449 676.035 33.8856 676.035 40.3644V60.3135C676.035 62.3178 676.128 63.9491 676.268 65.2076C676.408 66.4661 676.642 67.4449 676.968 68.1441C677.295 68.8432 677.621 69.3093 678.041 69.5424C678.461 69.7754 678.927 69.9152 679.487 69.9152H680ZM630.276 35.0508L630.929 35.7034L630.276 37.4746L629.623 35.7034L630.276 35.0508ZM658.869 35.0508L659.523 35.7034L658.869 37.4746L658.216 35.7034L658.869 35.0508Z" fill="white"/>
</g>
<defs>
<clipPath id="clip0">
<rect width="680" height="88" fill="white"/>
</clipPath>
</defs>
</svg>
