<svg width="497" height="90" viewBox="0 0 497 90" fill="none" xmlns="http://www.w3.org/2000/svg">
<path d="M497 71.5543C496.266 72.1902 495.288 72.7772 493.967 73.3152C492.841 73.7554 491.423 74 489.661 74C486.53 74 484.231 73.3152 482.812 71.9457C481.589 70.8207 480.708 69.3533 480.268 67.5435C479.877 66.5652 479.681 65.3424 479.681 63.9239V59.0326C478.849 63.5326 476.99 67.0543 474.202 69.5978C471.413 72.1413 468.037 73.413 464.123 73.413C461.188 73.413 458.595 73.1685 456.393 72.7283C454.192 72.288 452.333 71.5543 450.914 70.5761C448.321 68.962 447 66.5163 447 63.2391C447 61.087 447.391 59.1304 448.223 57.3207C449.055 55.5109 450.18 53.9946 451.697 52.7228C453.213 51.4511 454.975 50.4728 457.078 49.7391C459.182 49.0054 461.481 48.663 464.025 48.663C469.505 48.663 473.468 47.538 475.963 45.288C478.458 43.038 479.681 39.4185 479.681 34.4783C479.681 29.7826 478.703 26.2609 476.746 23.913C474.984 21.8098 472.44 20.7826 469.113 20.7826C466.178 20.7826 463.389 21.4674 460.796 22.8859C458.204 24.3043 455.953 26.212 454.143 28.7065C455.464 27.9728 456.834 27.7772 458.35 28.0707C459.867 28.3641 461.139 29.0978 462.166 30.2717C463.389 31.6413 463.977 33.2554 463.83 35.1141C463.683 36.9728 462.949 38.538 461.579 39.7609C460.16 40.9348 458.546 41.4728 456.736 41.3261C454.926 41.1793 453.409 40.4457 452.186 39.0761C451.354 38.0978 450.816 36.9728 450.62 35.7011C450.425 34.4293 450.571 33.2554 451.012 32.1304C452.528 27.9728 454.877 24.8913 458.057 22.9348C461.237 20.9783 464.955 20 469.113 20C481.883 20 488.292 26.1141 488.292 38.2935V51.5978V67.25C488.292 69.1576 488.585 70.4293 489.172 71.0652C489.759 71.7011 490.591 72.0435 491.716 72.0435C492.499 72.0435 493.233 71.8967 493.967 71.6522C494.798 71.3098 495.581 70.9185 496.217 70.4783L497 71.5543ZM479.681 39.4674L479.29 40.5435C478.507 43.625 476.941 45.8261 474.642 47.1957C472.342 48.5652 469.065 49.25 464.808 49.25C462.068 49.25 459.867 50.5217 458.155 53.0163C456.442 55.5109 455.611 58.837 455.611 62.9457C455.611 66.125 456.296 68.5707 457.665 70.1848C459.182 71.9946 461.432 72.9239 464.515 72.9239C468.771 72.9239 472.245 71.4076 474.935 68.3261C477.626 65.2446 479.241 61.1359 479.681 55.9022V39.4674ZM469.994 30.0761L469.309 31.9348L468.624 30.0761L469.309 29.3913L469.994 30.0761Z" fill="white"/>
<path d="M24.1042 0C46.5412 0 57.7358 11.8551 57.7358 35.6128C57.7358 47.7535 55.2111 56.7043 50.2092 62.5604C45.2074 68.4165 37.4902 71.3208 27.0577 71.3208H0C0.809826 70.9875 1.47674 70.1305 1.95311 68.7498C2.42948 67.3691 2.66766 64.9409 2.66766 61.513V9.71257C2.66766 6.28461 2.42948 3.85646 1.95311 2.47575C1.47674 1.09505 0.809826 0.285664 0 0H24.1042ZM42.7779 62.0843C44.5404 59.18 45.8743 55.514 46.6841 51.1815C47.4939 46.8489 47.9227 41.6593 47.9227 35.6128C47.9227 23.9958 45.9695 15.283 42.0157 9.42691C38.0142 3.47558 32.0596 0.476107 24.1995 0.476107H11.7187V70.7494H26.9625C34.0603 70.7494 39.348 67.8928 42.7779 62.0843ZM27.0577 13.0453L27.7246 13.7119L27.0577 15.5211L26.3908 13.7119L27.0577 13.0453ZM27.0577 17.0446L27.7246 17.7112L27.0577 19.5204L26.3908 17.7112L27.0577 17.0446Z" fill="white"/>
<path d="M85.0237 70.5702C88.0695 70.5702 90.9278 69.632 93.5049 67.7556C96.0821 65.8792 98.1907 63.2054 99.737 59.7811L100.58 60.2501L100.299 60.7192C98.6593 64.0967 96.5038 66.7236 93.8329 68.5531C91.1621 70.3825 88.21 71.3207 85.0237 71.3207C77.8546 71.3207 72.1848 69.5851 68.0145 66.0669C63.8442 62.5487 61.3607 57.4825 60.5642 50.7745C60.5642 50.5399 60.5642 50.3054 60.5173 50.0708C60.4704 49.8363 60.4705 49.6018 60.4705 49.2734C60.4705 49.1327 60.4705 49.0388 60.4236 48.9919C60.3767 48.945 60.3767 48.8512 60.3767 48.7105C60.3767 48.1945 60.3767 47.7254 60.3299 47.2094C60.283 46.6934 60.283 46.2243 60.283 45.7083C60.283 37.4992 62.1105 31.2603 65.7653 26.8977C69.4202 22.5351 74.6682 20.3773 81.5094 20.3773C88.8192 20.3773 94.2078 22.7697 97.769 27.6013C100.955 31.917 102.595 38.2497 102.736 46.5527H69.3734V46.6465V48.7105C69.7014 55.8407 71.1539 61.2821 73.8248 64.988C76.4957 68.7407 80.1974 70.5702 85.0237 70.5702ZM69.3734 45.9897H94.4889V45.8021C94.4889 38.109 93.5049 32.1515 91.4901 27.9766C89.1941 23.4264 85.8672 21.1279 81.5563 21.1279C77.7608 21.1279 74.762 23.145 72.6534 27.1322C70.4511 31.3072 69.3734 37.4992 69.3734 45.7083V45.9897ZM82.2592 29.1024L82.9152 29.7592L82.2592 31.5417L81.6032 29.7592L82.2592 29.1024Z" fill="white"/>
<path d="M140.483 47.4141C143.636 50.2596 145.189 53.6267 145.189 57.563C145.189 59.792 144.718 61.7838 143.824 63.5385C142.93 65.2932 141.613 66.8583 139.966 68.1387C138.319 69.4192 136.296 70.4151 133.943 71.1265C131.59 71.8379 129.002 72.1698 126.179 72.1698C122.603 72.1698 119.262 71.3636 116.11 69.7037C112.957 68.0439 110.416 65.8149 108.393 62.9694C107.311 61.6415 106.887 60.1239 107.028 58.4166C107.169 56.7094 107.875 55.2866 109.146 54.1484C110.51 52.9628 112.063 52.3937 113.804 52.536C115.545 52.6782 117.004 53.437 118.18 54.8124C119.309 56.1403 119.827 57.7053 119.686 59.46C119.544 61.2147 118.839 62.6849 117.521 63.8231C116.627 64.5819 115.686 65.0561 114.651 65.2932C113.616 65.5304 112.581 65.4829 111.592 65.151C112.016 65.5778 112.486 66.0046 112.91 66.384C113.333 66.7634 113.804 67.0954 114.322 67.4274C117.898 69.9409 121.85 71.2213 126.179 71.2213C129.379 71.2213 131.92 70.0357 133.849 67.7119C135.778 65.3881 136.719 62.2581 136.719 58.4166C136.719 56.1877 135.637 54.3381 133.472 52.7731C131.308 51.2081 128.296 50.2122 124.485 49.6905C118.98 48.9791 114.651 47.2718 111.592 44.4738C108.534 41.6757 106.981 38.2137 106.981 34.0403C106.981 31.9062 107.405 29.9143 108.252 28.1122C109.099 26.3101 110.322 24.7925 111.875 23.512C113.427 22.2315 115.31 21.283 117.474 20.5717C119.639 19.8603 122.038 19.5283 124.673 19.5283C126.932 19.5283 129.096 19.8603 131.12 20.5242C133.143 21.1882 135.025 22.3264 136.719 23.9863C136.954 24.176 137.19 24.4131 137.378 24.6502C138.554 25.9781 139.119 27.5431 138.978 29.2978C138.836 31.0525 138.131 32.5701 136.813 33.7558C135.496 34.894 133.943 35.4156 132.202 35.2733C130.461 35.1311 128.955 34.4197 127.779 33.0918C126.65 31.7639 126.132 30.1989 126.273 28.4442C126.414 26.6895 127.12 25.1719 128.438 23.9863C129.143 23.3697 129.896 22.8955 130.743 22.6584C131.59 22.4212 132.437 22.3264 133.331 22.4687C130.837 20.9985 127.92 20.2871 124.673 20.2871C121.803 20.2871 119.45 21.4727 117.709 23.844C115.968 26.2152 115.074 29.3453 115.074 33.2815C115.074 35.5105 116.062 37.36 118.039 38.8776C120.015 40.3952 122.838 41.3911 126.461 41.9128C132.531 42.8139 137.237 44.6635 140.483 47.4141ZM121.097 29.4875L121.85 28.8236L122.415 29.4875L121.85 31.2897L121.097 29.4875Z" fill="white"/>
<path d="M163.868 71.1311V71.2259L163.769 71.3208H146.986L146.887 71.2259V71.1311H147.483C148.029 71.1311 148.476 70.9889 148.923 70.7519C149.369 70.5148 149.717 70.0408 150.065 69.3297C150.412 68.6186 150.66 67.6705 150.809 66.3905C150.958 65.1105 151.058 63.4987 151.058 61.4602V30.5512C151.058 28.5127 150.958 26.9009 150.809 25.6209C150.66 24.3409 150.412 23.3454 150.065 22.6343C149.717 21.9232 149.369 21.4017 148.923 21.1647C148.476 20.9277 148.029 20.7855 147.483 20.7855H146.887L146.986 20.6906H159.796V61.4602C159.796 63.4987 159.896 65.1105 160.045 66.3905C160.194 67.6705 160.442 68.6186 160.74 69.3297C161.038 70.0408 161.435 70.5148 161.882 70.7519C162.329 70.9889 162.825 71.1311 163.371 71.1311H163.868ZM159.598 11.3042C158.208 12.4893 156.569 13.0582 154.732 12.916C152.895 12.7738 151.356 12.0153 150.164 10.6405C148.923 9.3131 148.327 7.74868 148.476 5.99464C148.625 4.2406 149.419 2.771 150.859 1.63325C152.249 0.448087 153.888 -0.120791 155.725 0.0214287C157.562 0.163648 159.101 0.874745 160.293 2.20213C161.534 3.57691 162.13 5.14133 161.981 6.89537C161.832 8.64941 161.038 10.119 159.598 11.3042Z" fill="white"/>
<path d="M212.17 21.3218C212.217 21.3695 212.264 21.4649 212.264 21.5126H211.699C210.617 21.5126 209.816 22.3234 209.204 23.945C208.592 25.5665 208.31 28.4281 208.31 32.482V68.6335C208.31 70.112 208.216 71.6381 207.98 73.212C207.745 74.7859 207.463 76.3121 207.039 77.7429C206.615 79.1737 206.097 80.5091 205.438 81.7491C204.779 82.9891 204.026 83.9907 203.226 84.7538C199.413 88.2354 193.67 90 185.996 90C178.276 90 172.957 89.0938 170.085 87.2338C169.473 86.8523 168.908 86.423 168.485 85.8984C167.308 84.563 166.743 82.9891 166.884 81.2245C167.025 79.4598 167.779 77.9336 169.144 76.7413C170.462 75.5967 172.015 75.0721 173.757 75.2151C175.499 75.3582 176.958 76.0736 178.088 77.409C179.265 78.7444 179.83 80.3183 179.688 82.083C179.547 83.8476 178.794 85.3738 177.429 86.5661C177.052 86.9 176.629 87.1861 176.158 87.4246C175.687 87.6631 175.216 87.8538 174.699 87.9969C176.064 88.3308 177.711 88.5692 179.547 88.7123C181.383 88.8554 183.502 88.9508 185.902 88.9508C190.657 88.9508 194.235 87.6631 196.635 85.0399C197.2 84.4676 197.671 83.7045 198.048 82.703C198.424 81.7014 198.754 80.6522 199.036 79.4598C199.319 78.2675 199.507 77.0752 199.648 75.8351C199.789 74.5951 199.836 73.4028 199.836 72.2582V54.5163C198.942 60.0964 197.059 64.4365 194.14 67.5365C191.222 70.6366 187.691 72.1628 183.549 72.1628C171.545 72.1628 165.566 63.8642 165.566 47.2669C165.566 38.3483 167.214 31.7666 170.556 27.4266C173.569 23.468 177.9 21.5126 183.549 21.5126C187.691 21.5126 191.222 23.1342 194.14 26.3296C197.059 29.5251 198.942 34.0559 199.836 39.8268V21.2264H212.17V21.3218ZM184.113 71.3043C186.42 71.3043 188.586 70.732 190.516 69.5873C192.446 68.4427 194.14 66.8211 195.506 64.7226C196.871 62.6241 197.953 60.0964 198.707 57.1394C199.46 54.1824 199.836 50.8916 199.836 47.2669C199.836 43.5945 199.46 40.2083 198.707 37.1083C197.953 34.0082 196.871 31.3851 195.506 29.2389C194.14 27.0927 192.446 25.3757 190.516 24.1834C188.586 22.9911 186.42 22.3711 184.113 22.3711C181.242 22.3711 178.982 24.3265 177.335 28.1896C175.64 32.339 174.793 38.6821 174.793 47.2669C174.793 55.5178 175.64 61.6703 177.335 65.6765C178.982 69.4443 181.242 71.3043 184.113 71.3043ZM185.62 28.8574L186.279 29.5251L185.62 31.3374L184.961 29.5251L185.62 28.8574Z" fill="white"/>
<path d="M260.66 71.1299V71.2253L260.565 71.3207H244.476L244.286 71.2253V71.1299H244.855C245.425 71.1299 245.899 70.9868 246.279 70.7483C246.659 70.5098 247.039 70.0328 247.371 69.3173C247.703 68.6018 247.893 67.6001 248.083 66.3122C248.225 65.0243 248.32 63.3548 248.32 61.3038V40.8882C248.32 36.0706 247.94 32.1592 247.228 29.2495C246.516 26.3398 245.425 24.241 243.954 22.9531V22.8577C243.621 22.6192 243.194 22.333 242.625 22.0468C242.055 21.7606 241.343 21.5698 240.536 21.4267C239.729 21.2836 238.733 21.2836 237.641 21.4267C236.549 21.5698 235.268 21.9037 233.891 22.4761C233.132 22.7146 232.373 23.1439 231.613 23.7163C230.901 24.241 230.189 24.8611 229.382 25.672C228.576 26.4829 227.864 27.4846 227.152 28.6771V28.8679V29.3449V61.3992C227.152 63.4503 227.247 65.072 227.389 66.3599C227.531 67.6478 227.769 68.6495 228.053 69.365C228.338 70.0805 228.718 70.6052 229.145 70.8437C229.572 71.0822 230.094 71.2253 230.569 71.2253H231.044L230.949 71.3207H214.859H214.811V71.2253H215.286C215.808 71.2253 216.283 71.0822 216.71 70.8437C217.137 70.6052 217.517 70.1282 217.849 69.4127C218.181 68.6972 218.419 67.6955 218.561 66.4076C218.703 65.1197 218.798 63.4503 218.798 61.3992V30.2989C218.798 28.2478 218.703 26.626 218.561 25.3381C218.419 24.0502 218.181 23.0962 217.849 22.3807C217.517 21.6652 217.137 21.1882 216.71 20.9497C216.283 20.7112 215.808 20.5681 215.286 20.5681H214.811V20.4727V20.3773H214.906H227.152V26.8645C227.531 26.3398 228.148 25.7197 228.955 24.9565C229.762 24.1933 230.901 23.3824 232.278 22.4761C233.559 21.6652 234.936 21.1405 236.454 20.902C237.973 20.6635 239.35 20.6158 240.631 20.6635C242.15 20.7112 243.621 20.902 245.093 21.2359C246.564 21.5698 247.94 22.0945 249.222 22.81C250.503 23.5255 251.595 24.5272 252.497 25.8151C255.202 29.2972 256.579 34.3534 256.579 40.8882V61.3038C256.579 63.3548 256.674 65.0243 256.816 66.3122C256.958 67.6001 257.196 68.6018 257.528 69.3173C257.86 70.0328 258.192 70.5098 258.62 70.7483C259.047 70.9868 259.521 71.1299 260.091 71.1299H260.66ZM238.021 35.5459L238.685 36.2137L238.021 37.9309L237.356 36.2137L238.021 35.5459Z" fill="white"/>
<path d="M309.898 34.4064H329.8V34.9757H309.898V61.4516C309.898 63.4919 309.99 65.1051 310.128 66.3862C310.266 67.6673 310.497 68.6162 310.819 69.3279C311.142 70.0397 311.464 70.5141 311.879 70.7514C312.294 70.9886 312.754 71.131 313.307 71.131H313.768C313.722 71.131 313.676 71.1784 313.676 71.2259V71.3208H298.104L297.92 71.131H298.473C298.979 71.131 299.394 70.9886 299.809 70.7514C300.223 70.5141 300.546 70.0397 300.868 69.3279C301.191 68.6162 301.421 67.6673 301.559 66.3862C301.698 65.1051 301.79 63.4919 301.79 61.4516V34.9757H293.774V34.4064H301.79V22.7342V21.975V11.4416C301.79 7.31366 302.573 4.41934 304.093 2.66377C305.613 0.908205 308.239 0.0541443 311.925 0.0541443H323.442C324.41 -0.0881991 325.377 0.0541443 326.345 0.433727C327.312 0.813309 328.095 1.43013 328.786 2.23674C329.892 3.56528 330.399 5.13106 330.261 6.88663C330.123 8.6422 329.431 10.1605 328.142 11.3467C326.852 12.4855 325.331 13.0074 323.627 12.8651C321.922 12.7227 320.494 12.011 319.388 10.6825C318.237 9.35392 317.684 7.78814 317.822 6.03257C317.96 4.277 318.651 2.80612 319.941 1.66737C320.264 1.33524 320.632 1.05055 321.139 0.813309H320.218H312.294C311.418 0.813309 310.819 1.61992 310.451 3.23315C310.082 4.84637 309.898 7.59835 309.898 11.4416V21.975V22.7342V34.4064ZM317.177 21.6903L317.822 21.0261L318.467 21.6903L317.822 23.4934L317.177 21.6903Z" fill="white"/>
<path d="M356.132 19.5283C363.162 19.5283 368.504 21.7333 372.253 26.19C376.003 30.6468 377.83 37.027 377.83 45.4245C377.83 53.8221 375.956 60.2023 372.253 64.6591C368.504 69.1158 363.162 71.3208 356.132 71.3208C349.103 71.3208 343.76 69.1158 340.058 64.6591C336.356 60.2023 334.528 53.8221 334.528 45.4245C334.528 37.027 336.356 30.6468 340.058 26.19C343.76 21.7802 349.103 19.5283 356.132 19.5283ZM356.132 70.8516C360.256 70.8516 363.396 68.6936 365.599 64.3307C367.801 59.9677 368.926 53.6813 368.926 45.4245C368.926 37.5431 367.895 31.4443 365.833 27.1283C363.631 22.39 360.397 19.9975 356.132 19.9975C352.008 19.9975 348.869 22.1555 346.713 26.5184C344.557 30.8814 343.432 37.1678 343.432 45.4245C343.432 53.3529 344.463 59.4986 346.525 63.8146C348.634 68.506 351.821 70.8516 356.132 70.8516ZM356.788 29.5678L357.445 30.2246L356.788 32.0073L356.132 30.2246L356.788 29.5678Z" fill="white"/>
<path d="M411.959 22.5943C413.091 23.9715 413.609 25.5388 413.468 27.296C413.326 29.0531 412.619 30.5254 411.299 31.7127C409.98 32.8525 408.424 33.3749 406.68 33.2324C404.936 33.0899 403.427 32.3776 402.249 31.0478C401.448 30.0505 400.929 28.8632 400.741 27.5334C399.232 28.3408 397.865 29.4806 396.64 30.8578C395.414 32.2351 394.424 33.8498 393.67 35.702C393.623 35.8445 393.481 36.2719 393.246 36.9843C393.01 37.6966 392.774 38.409 392.539 39.1214V61.2525C392.539 63.2946 392.633 64.9094 392.774 66.1916C392.916 67.4739 393.152 68.4712 393.481 69.1836C393.811 69.896 394.141 70.4184 394.566 70.7033C394.99 70.9883 395.414 71.1308 395.933 71.1308H396.498L396.31 71.3207H380.472V71.2257V71.1308H380.377H380.849C381.414 71.1308 381.886 70.9883 382.31 70.7033C382.734 70.4184 383.064 69.896 383.347 69.1836C383.63 68.4712 383.865 67.4739 384.007 66.1916C384.148 64.9094 384.243 63.2946 384.243 61.2525V30.5729C384.243 28.5307 384.148 26.916 384.007 25.6337C383.865 24.3515 383.63 23.3542 383.347 22.6418C383.064 21.9294 382.687 21.407 382.263 21.1695C381.839 20.9321 381.367 20.7896 380.849 20.7896H380.377V20.6946H392.539V38.4565C392.727 37.7441 392.916 37.1267 393.104 36.5568C393.293 35.9869 393.434 35.6545 393.481 35.512C394.754 31.3327 396.451 27.9133 398.619 25.3013C400.788 22.6893 403.145 21.122 405.643 20.5996C406.774 20.2672 407.906 20.3147 409.037 20.6946C410.168 21.0746 411.158 21.7394 411.959 22.5943ZM400.835 46.6251L401.495 47.195L400.835 48.9996L400.175 47.195L400.835 46.6251Z" fill="white"/>
</svg>
